OxygenSans-Bold.ufo
<glyph name="ampersand" format="1">
  <advance width="1307.10093429"/>
  <unicode hex="0026"/>
  <outline>
    <contour>
      <point x="570.748635314" y="-11.5155889145" type="curve" smooth="yes"/>
      <point x="736.823850514" y="-11.5155889145"/>
      <point x="877.735775772" y="43.582878438"/>
      <point x="991.461158933" y="131.769420533" type="curve"/>
      <point x="1114.82385051" y="-3.32904681923" type="line"/>
      <point x="1140.63484149" y="4.0"/>
      <point x="1261.00493387" y="37.5620932186"/>
      <point x="1286.49727063" y="46.4844110855" type="curve"/>
      <point x="1111.51805585" y="244.528448457" type="line"/>
      <point x="1170.19940164" y="311.484411085"/>
      <point x="1223.05689691" y="394.341906362"/>
      <point x="1260.82631745" y="473.660560571" type="curve"/>
      <point x="1124.96635524" y="569.59573798" type="line"/>
      <point x="1091.28500945" y="500.178616418"/>
      <point x="1045.15289733" y="424.134579047"/>
      <point x="996.329046819" y="370.178616418" type="curve"/>
      <point x="663.541307999" y="728.823850514" type="line"/>
      <point x="820.660560571" y="803.922317867"/>
      <point x="957.385943733" y="907.559626286"/>
      <point x="957.385943733" y="1072.14250472" type="curve" smooth="yes"/>
      <point x="957.385943733" y="1269.26422423"/>
      <point x="779.132112114" y="1356.76942053"/>
      <point x="601.253831619" y="1356.76942053" type="curve" smooth="yes"/>
      <point x="401.134579047" y="1356.76942053"/>
      <point x="250.792672685" y="1251.84710267"/>
      <point x="250.792672685" y="1056.14250472" type="curve" smooth="yes"/>
      <point x="250.792672685" y="938.549233676"/>
      <point x="318.694205333" y="858.966355238"/>
      <point x="401.352298971" y="767.220186857" type="curve"/>
      <point x="232.100934285" y="679.077682133"/>
      <point x="100.023252152" y="569.704597942"/>
      <point x="100.023252152" y="373.067289523" type="curve" smooth="yes"/>
      <point x="100.023252152" y="118.329046819"/>
      <point x="289.191475961" y="-11.5155889145"/>
    </contour>
    <contour>
      <point x="577.660560571" y="147.409195885" type="curve" smooth="yes"/>
      <point x="403.795139618" y="147.409195885"/>
      <point x="289.333980684" y="229.155364266"/>
      <point x="289.333980684" y="383.067289523" type="curve" smooth="yes"/>
      <point x="289.333980684" y="510.670953181"/>
      <point x="382.486878018" y="582.922317867"/>
      <point x="503.518055847" y="646.251364686" type="curve"/>
      <point x="600.228112534" y="545.178616418"/>
      <point x="776.639775352" y="352.184075163"/>
      <point x="874.075215201" y="250.067289523" type="curve"/>
      <point x="793.152897334" y="186.738242704"/>
      <point x="692.098467353" y="147.409195885"/>
    </contour>
    <contour>
      <point x="560.28747638" y="844.518055847" type="curve"/>
      <point x="490.541307999" y="913.803065295"/>
      <point x="441.256298551" y="976.670953181"/>
      <point x="441.256298551" y="1060.36269158" type="curve" smooth="yes"/>
      <point x="441.256298551" y="1157.96635524"/>
      <point x="507.409195885" y="1207.48194415"/>
      <point x="606.023252152" y="1207.48194415" type="curve" smooth="yes"/>
      <point x="693.538841067" y="1207.48194415"/>
      <point x="765.152897334" y="1162.15289733"/>
      <point x="765.152897334" y="1066.36269158" type="curve" smooth="yes"/>
      <point x="765.152897334" y="958.440373714"/>
      <point x="668.0" y="899.528448457"/>
    </contour>
  </outline>
</glyph>
<glyph name="quotesingle" format="1">
  <advance width="430.193942893"/>
  <unicode hex="0027"/>
  <outline>
    <contour>
      <point x="153.409195885" y="861.678878858" type="line"/>
      <point x="279.323588075" y="861.678878858" type="line"/>
      <point x="300.49973756" y="1346.73577577" type="line"/>
      <point x="128.419588495" y="1346.73577577" type="line"/>
    </contour>
  </outline>
</glyph>
<glyph name="parenright" format="1">
  <advance width="695.992074323"/>
  <unicode hex="0029"/>
  <outline>
    <contour>
      <point x="101.3834768" y="-174.09600042" type="curve"/>
      <point x="295.233046399" y="-174.09600042" type="line"/>
      <point x="440.375551123" y="22.8703548184"/>
      <point x="545.815924837" y="326.626915809"/>
      <point x="545.815924837" y="651.362691581" type="curve" smooth="yes"/>
      <point x="545.815924837" y="960.670953181"/>
      <point x="450.419588495" y="1215.46115893"/>
      <point x="295.189009028" y="1438.79020575" type="curve"/>
      <point x="101.746168381" y="1438.79020575" type="line"/>
      <point x="257.272149906" y="1183.44037371"/>
      <point x="344.966355238" y="939.3082616"/>
      <point x="344.966355238" y="651.593271048" type="curve" smooth="yes"/>
      <point x="344.966355238" y="341.01039261"/>
      <point x="231.831776191" y="20.2409720764"/>
    </contour>
  </outline>
</glyph>
<glyph name="asterisk" format="1">
  <advance width="1102.55962629"/>
  <unicode hex="002A"/>
  <outline>
    <contour>
      <point x="589.745643502" y="485.316187277" type="line"/>
      <point x="783.833718245" y="676.023777031" type="line"/>
      <point x="783.833718245" y="676.023777031"/>
      <point x="729.285009448" y="711.841643922"/>
      <point x="703.39386941" y="744.546241864" type="curve"/>
      <point x="728.886206173" y="760.478952341"/>
      <point x="918.621457065" y="796.613531388"/>
      <point x="944.113793827" y="812.546241864" type="curve"/>
      <point x="902.370092379" y="865.761494856"/>
      <point x="836.908933445" y="1044.98414865"/>
      <point x="825.118727693" y="1061.55416754" type="curve"/>
      <point x="732.474543355" y="1002.8782805" type="line"/>
      <point x="741.717982364" y="1273.86242914" type="line"/>
      <point x="480.886206173" y="1227.33891455" type="line"/>
      <point x="513.47947722" y="1119.50572118" type="line"/>
      <point x="268.332038631" y="1203.9925992" type="line"/>
      <point x="235.878805375" y="932.997533067" type="line"/>
      <point x="334.43491497" y="933.189533907" type="line"/>
      <point x="179.429981104" y="713.306319547" type="line"/>
      <point x="427.272149906" y="612.547291623" type="line"/>
      <point x="453.227587655" y="701.486878018" type="line"/>
    </contour>
  </outline>
</glyph>
<glyph name="plus" format="1">
  <advance width="1044.55962629"/>
  <unicode hex="002B"/>
  <outline>
    <contour>
      <point x="448.437906781" y="134.779813143" type="line"/>
      <point x="603.518055847" y="134.779813143" type="line"/>
      <point x="603.518055847" y="516.658093638" type="line"/>
      <point x="961.650167961" y="516.658093638" type="line"/>
      <point x="961.650167961" y="671.28747638" type="line"/>
      <point x="604.518055847" y="671.28747638" type="line"/>
      <point x="604.518055847" y="1051.29786899" type="line"/>
      <point x="449.437906781" y="1051.29786899" type="line"/>
      <point x="449.437906781" y="671.28747638" type="line"/>
      <point x="87.4379067814" y="671.28747638" type="line"/>
      <point x="87.4379067814" y="516.658093638" type="line"/>
      <point x="448.437906781" y="516.658093638" type="line"/>
    </contour>
  </outline>
</glyph>
<glyph name="comma" format="1">
  <advance width="497.090541675"/>
  <unicode hex="002C"/>
  <outline>
    <contour>
      <point x="134.593271048" y="-243.515588915" type="curve"/>
      <point x="266.344373294" y="-243.515588915" type="line"/>
      <point x="292.792672685" y="-172.137045979"/>
      <point x="384.80799916" y="113.522989712"/>
      <point x="402.652634894" y="181.077682133" type="curve"/>
      <point x="405.103401218" y="228.111326895" type="line"/>
      <point x="199.968822171" y="228.111326895" type="line"/>
      <point x="195.826317447" y="159.919326055"/>
      <point x="143.196934705" y="-171.81839177"/>
    </contour>
  </outline>
</glyph>
<glyph name="three" format="1">
  <advance width="1166.33151375"/>
  <unicode hex="0033"/>
  <outline>
    <contour>
      <point x="533.440373714" y="-18.0" type="curve" smooth="yes"/>
      <point x="800.593271048" y="-18.0"/>
      <point x="999.935177409" y="120.142504724"/>
      <point x="999.935177409" y="366.68134579" type="curve" smooth="yes"/>
      <point x="999.935177409" y="540.800598362"/>
      <point x="901.727850094" y="674.152897334"/>
      <point x="744.256298551" y="714.01039261" type="curve"/>
      <point x="884.233046399" y="760.955962629"/>
      <point x="964.253831619" y="854.132112114"/>
      <point x="964.253831619" y="1011.20732731" type="curve" smooth="yes"/>
      <point x="964.253831619" y="1226.52598152"/>
      <point x="777.880747428" y="1361.77981314"/>
      <point x="537.891140038" y="1361.77981314" type="curve" smooth="yes"/>
      <point x="384.362691581" y="1361.77981314"/>
      <point x="259.945570019" y="1325.46115893"/>
      <point x="154.759027924" y="1260.54923368" type="curve"/>
      <point x="217.60613059" y="1107.6452341" type="line"/>
      <point x="298.6165232" y="1159.78773882"/>
      <point x="407.3082616" y="1194.10639303"/>
      <point x="521.3082616" y="1194.10639303" type="curve" smooth="yes"/>
      <point x="668.823850514" y="1194.10639303"/>
      <point x="763.502729372" y="1111.52351459"/>
      <point x="763.502729372" y="994.437906781" type="curve" smooth="yes"/>
      <point x="763.502729372" y="819.352298971"/>
      <point x="603.911925257" y="794.264224228"/>
      <point x="414.68134579" y="791.033644762" type="curve"/>
      <point x="362.966355238" y="791.033644762" type="line"/>
      <point x="362.966355238" y="624.810990972" type="line"/>
      <point x="371.251364686" y="624.810990972"/>
      <point x="405.440373714" y="624.810990972"/>
      <point x="414.044037371" y="624.810990972" type="curve"/>
      <point x="635.559626286" y="619.810990972"/>
      <point x="791.007925677" y="579.987140458"/>
      <point x="791.007925677" y="373.582878438" type="curve" smooth="yes"/>
      <point x="791.007925677" y="232.90399958"/>
      <point x="691.525981524" y="150.354765904"/>
      <point x="534.440373714" y="150.354765904" type="curve" smooth="yes"/>
      <point x="411.660560571" y="150.354765904"/>
      <point x="283.518055847" y="197.639775352"/>
      <point x="225.6165232" y="242.948036952" type="curve"/>
      <point x="160.088074743" y="92.0880747428" type="line"/>
      <point x="221.694205333" y="40.2513646861"/>
      <point x="374.111326895" y="-18.0"/>
    </contour>
  </outline>
</glyph>
<glyph name="four" format="1">
  <advance width="1205.8495696"/>
  <unicode hex="0034"/>
  <outline>
    <contour>
      <point x="733.152897334" y="0.0" type="line"/>
      <point x="939.354765904" y="0.0" type="line"/>
      <point x="939.354765904" y="318.305794667" type="line"/>
      <point x="1090.81592484" y="318.305794667" type="line"/>
      <point x="1103.541308" y="483.341906362" type="line"/>
      <point x="939.354765904" y="483.341906362" type="line"/>
      <point x="939.354765904" y="1341.73577577" type="line"/>
      <point x="698.184075163" y="1341.73577577" type="line"/>
      <point x="130.98960739" y="475.230579467" type="line"/>
      <point x="130.98960739" y="318.305794667" type="line"/>
      <point x="733.152897334" y="318.305794667" type="line"/>
    </contour>
    <contour>
      <point x="342.82878438" y="481.253831619" type="line"/>
      <point x="732.834243124" y="1100.24889775" type="line"/>
      <point x="732.834243124" y="481.253831619" type="line"/>
    </contour>
  </outline>
</glyph>
<glyph name="five" format="1">
  <advance width="1189.49727063"/>
  <unicode hex="0035"/>
  <outline>
    <contour>
      <point x="565.738242704" y="-18.3186542095" type="curve" smooth="yes"/>
      <point x="859.256298551" y="-18.3186542095"/>
      <point x="1051.55170061" y="153.847102666"/>
      <point x="1051.55170061" y="429.593271048" type="curve" smooth="yes"/>
      <point x="1051.55170061" y="670.077682133"/>
      <point x="889.023252152" y="850.220186857"/>
      <point x="624.738242704" y="850.220186857" type="curve" smooth="yes"/>
      <point x="558.717457485" y="850.220186857"/>
      <point x="486.574952761" y="821.362691581"/>
      <point x="423.191475961" y="786.253831619" type="curve"/>
      <point x="424.554167541" y="829.178616418"/>
      <point x="449.971289104" y="1139.63237455"/>
      <point x="451.333980684" y="1172.3369725" type="curve"/>
      <point x="983.277083771" y="1172.3369725" type="line"/>
      <point x="998.046504304" y="1341.73577577" type="line"/>
      <point x="260.813457905" y="1341.73577577" type="line"/>
      <point x="220.626915809" y="611.031177829" type="line"/>
      <point x="378.497270628" y="588.40426202" type="line"/>
      <point x="437.541307999" y="651.766953601"/>
      <point x="519.056896914" y="684.590804115"/>
      <point x="597.528448457" y="684.590804115" type="curve" smooth="yes"/>
      <point x="752.217719924" y="684.590804115"/>
      <point x="835.349832039" y="577.922317867"/>
      <point x="835.349832039" y="429.362691581" type="curve" smooth="yes"/>
      <point x="835.349832039" y="260.134579047"/>
      <point x="728.077682133" y="151.717457485"/>
      <point x="544.518055847" y="151.717457485" type="curve" smooth="yes"/>
      <point x="408.494803695" y="151.717457485"/>
      <point x="279.823850514" y="224.598204913"/>
      <point x="236.782280076" y="252.486878018" type="curve"/>
      <point x="164.033644762" y="102.352298971" type="line"/>
      <point x="215.668486248" y="67.1009342851"/>
      <point x="385.505196305" y="-18.3186542095"/>
    </contour>
  </outline>
</glyph>
<glyph name="eight" format="1">
  <advance width="1216.06975646"/>
  <unicode hex="0038"/>
  <outline>
    <contour>
      <point x="609.738242704" y="-18.0" type="curve" smooth="yes"/>
      <point x="854.507663237" y="-18.0"/>
      <point x="1059.541308" y="107.945570019"/>
      <point x="1059.541308" y="350.803065295" type="curve" smooth="yes"/>
      <point x="1059.541308" y="519.582878438"/>
      <point x="965.751102246" y="645.098467353"/>
      <point x="821.80799916" y="705.637308419" type="curve"/>
      <point x="947.883214361" y="763.450766324"/>
      <point x="1032.99207432" y="863.274616838"/>
      <point x="1032.99207432" y="1020.24097208" type="curve" smooth="yes"/>
      <point x="1032.99207432" y="1243.95596263"/>
      <point x="849.375551123" y="1361.77981314"/>
      <point x="609.375551123" y="1361.77981314" type="curve" smooth="yes"/>
      <point x="370.100934285" y="1361.77981314"/>
      <point x="183.121719505" y="1243.95596263"/>
      <point x="183.121719505" y="1020.24097208" type="curve" smooth="yes"/>
      <point x="183.121719505" y="861.867887886"/>
      <point x="276.867887886" y="758.582878438"/>
      <point x="403.481944153" y="704.68134579" type="curve"/>
      <point x="251.220186857" y="641.31865421"/>
      <point x="156.528448457" y="527.0"/>
      <point x="156.528448457" y="351.484411085" type="curve" smooth="yes"/>
      <point x="156.528448457" y="108.98960739"/>
      <point x="364.562093219" y="-18.0"/>
    </contour>
    <contour>
      <point x="609.738242704" y="127.870354818" type="curve" smooth="yes"/>
      <point x="443.839176989" y="127.870354818"/>
      <point x="350.598204913" y="209.28747638"/>
      <point x="350.598204913" y="350.538841067" type="curve" smooth="yes"/>
      <point x="350.598204913" y="497.878280495"/>
      <point x="461.89360697" y="587.020785219"/>
      <point x="609.738242704" y="622.658093638" type="curve"/>
      <point x="757.538841067" y="587.020785219"/>
      <point x="866.240972076" y="494.329046819"/>
      <point x="866.240972076" y="351.220186857" type="curve" smooth="yes"/>
      <point x="866.240972076" y="206.419588495"/>
      <point x="778.549233676" y="127.870354818"/>
    </contour>
    <contour>
      <point x="609.738242704" y="765.759027924" type="curve"/>
      <point x="458.256298551" y="799.945570019"/>
      <point x="371.795139618" y="886.911925257"/>
      <point x="371.795139618" y="1021.47155154" type="curve" smooth="yes"/>
      <point x="371.795139618" y="1137.81099097"/>
      <point x="471.124186437" y="1211.14003779"/>
      <point x="609.738242704" y="1211.14003779" type="curve" smooth="yes"/>
      <point x="748.98960739" y="1211.14003779"/>
      <point x="844.68134579" y="1137.81099097"/>
      <point x="844.68134579" y="1021.47155154" type="curve" smooth="yes"/>
      <point x="844.68134579" y="886.911925257"/>
      <point x="761.176149486" y="799.945570019"/>
    </contour>
  </outline>
</glyph>
<glyph name="semicolon" format="1">
  <advance width="576.411662818"/>
  <unicode hex="003B"/>
  <outline>
    <contour>
      <point x="169.012859542" y="-284.450766324" type="line"/>
      <point x="296.103401218" y="-284.450766324" type="line"/>
      <point x="411.147438589" y="211.673420113" type="line"/>
      <point x="219.650167961" y="211.673420113" type="line"/>
    </contour>
    <contour>
      <point x="194.572485828" y="791.217719924" type="line"/>
      <point x="411.333980684" y="791.217719924" type="line"/>
      <point x="411.333980684" y="1022.63730842" type="line"/>
      <point x="194.572485828" y="1022.63730842" type="line"/>
    </contour>
  </outline>
</glyph>
<glyph name="less" format="1">
  <advance width="1112.64770103"/>
  <unicode hex="003C"/>
  <outline>
    <contour>
      <point x="971.867887886" y="149.880747428" type="line"/>
      <point x="971.867887886" y="149.880747428"/>
      <point x="971.505196305" y="326.916859122"/>
      <point x="970.823850514" y="327.598204913" type="curve" smooth="yes"/>
      <point x="311.422055427" y="625.002466933" type="line"/>
      <point x="972.823850514" y="947.857495276" type="line"/>
      <point x="972.823850514" y="1120.03611169" type="line"/>
      <point x="99.5051963048" y="672.398803275" type="line"/>
      <point x="99.5051963048" y="568.562093219" type="line"/>
    </contour>
  </outline>
</glyph>
<glyph name="equal" format="1">
  <advance width="1173.26422423"/>
  <unicode hex="003D"/>
  <outline>
    <contour>
      <point x="135.735775772" y="334.922317867" type="line"/>
      <point x="1032.4299811" y="334.922317867" type="line"/>
      <point x="1032.4299811" y="493.782280076" type="line"/>
      <point x="135.735775772" y="493.782280076" type="line"/>
    </contour>
    <contour>
      <point x="135.098467353" y="704.855028343" type="line"/>
      <point x="1032.4299811" y="704.855028343" type="line"/>
      <point x="1032.4299811" y="868.891140038" type="line"/>
      <point x="135.098467353" y="868.891140038" type="line"/>
    </contour>
  </outline>
</glyph>
<glyph name="B" format="1">
  <advance width="1294.27461684"/>
  <unicode hex="0042"/>
  <outline>
    <contour>
      <point x="174.481944153" y="0.0" type="line"/>
      <point x="706.274616838" y="0.0" type="line" smooth="yes"/>
      <point x="1018.42751417" y="0.0"/>
      <point x="1195.98960739" y="139.373084191"/>
      <point x="1195.98960739" y="387.582878438" type="curve" smooth="yes"/>
      <point x="1195.98960739" y="594.945570019"/>
      <point x="1055.4948037" y="695.362691581"/>
      <point x="867.639775352" y="736.582878438" type="curve"/>
      <point x="867.639775352" y="683.186542095" type="line"/>
      <point x="1064.91192526" y="745.68134579"/>
      <point x="1145.1217195" y="852.867887886"/>
      <point x="1145.1217195" y="1007.96635524" type="curve" smooth="yes"/>
      <point x="1145.1217195" y="1251.45076632"/>
      <point x="968.549233676" y="1341.73577577"/>
      <point x="632.176149486" y="1341.73577577" type="curve" smooth="yes"/>
      <point x="174.481944153" y="1341.73577577" type="line"/>
    </contour>
    <contour>
      <point x="352.453233256" y="175.21226118" type="line"/>
      <point x="407.036111694" y="118.266691161" type="line"/>
      <point x="407.036111694" y="685.966355238" type="line"/>
      <point x="352.134579047" y="624.39386941" type="line"/>
      <point x="639.670953181" y="624.39386941" type="line" smooth="yes"/>
      <point x="860.997533067" y="624.39386941"/>
      <point x="963.435439849" y="568.339439429"/>
      <point x="963.435439849" y="399.891140038" type="curve" smooth="yes"/>
      <point x="963.435439849" y="237.815924837"/>
      <point x="870.150430401" y="175.21226118"/>
      <point x="665.746168381" y="175.21226118" type="curve" smooth="yes"/>
    </contour>
    <contour>
      <point x="351.815924837" y="781.209794247" type="line"/>
      <point x="407.036111694" y="732.220186857" type="line"/>
      <point x="407.036111694" y="1225.55715935" type="line"/>
      <point x="352.771887466" y="1170.61158933" type="line"/>
      <point x="612.834243124" y="1170.61158933" type="line" smooth="yes"/>
      <point x="821.77734621" y="1170.61158933"/>
      <point x="920.567551963" y="1132.51312198"/>
      <point x="920.567551963" y="974.481944153" type="curve" smooth="yes"/>
      <point x="920.567551963" y="823.484411085"/>
      <point x="827.448299391" y="781.209794247"/>
      <point x="663.70213101" y="781.209794247" type="curve"/>
    </contour>
  </outline>
</glyph>
<glyph name="E" format="1">
  <advance width="1163.16575688"/>
  <unicode hex="0045"/>
  <outline>
    <contour>
      <point x="591.901532647" y="429.864528658" type="move" name="top"/>
    </contour>
    <contour>
      <point x="1065.91439219" y="10.0" type="move" name="ogonek"/>
    </contour>
    <contour>
      <point x="591.901532647" y="0.0" type="move" name="bottom"/>
    </contour>
    <contour>
      <point x="174.481944153" y="0.0" type="line"/>
      <point x="1028.03364476" y="0.0" type="line"/>
      <point x="1042.48441109" y="175.21226118" type="line"/>
      <point x="342.870354818" y="175.21226118" type="line"/>
      <point x="407.036111694" y="112.090541675" type="line"/>
      <point x="407.036111694" y="678.867887886" type="line"/>
      <point x="342.189009028" y="613.163289943" type="line"/>
      <point x="985.880747428" y="613.163289943" type="line"/>
      <point x="985.880747428" y="784.28747638" type="line"/>
      <point x="342.870354818" y="784.28747638" type="line"/>
      <point x="407.036111694" y="721.759027924" type="line"/>
      <point x="407.036111694" y="1233.86542095" type="line"/>
      <point x="342.826317447" y="1170.61158933" type="line"/>
      <point x="1026.90153265" y="1170.61158933" type="line"/>
      <point x="1035.67095318" y="1341.73577577" type="line"/>
      <point x="174.481944153" y="1341.73577577" type="line"/>
    </contour>
  </outline>
</glyph>
<glyph name="F" format="1">
  <advance width="1078.68381272"/>
  <unicode hex="0046"/>
  <outline>
    <contour>
      <point x="174.481944153" y="0.0" type="line"/>
      <point x="408.310728532" y="0.0" type="line"/>
      <point x="408.310728532" y="657.735775772" type="line"/>
      <point x="327.60613059" y="582.448299391" type="line"/>
      <point x="967.134579047" y="582.448299391" type="line"/>
      <point x="967.134579047" y="751.29786899" type="line"/>
      <point x="322.968822171" y="751.29786899" type="line"/>
      <point x="408.310728532" y="688.406728952" type="line"/>
      <point x="408.310728532" y="1239.37061726" type="line"/>
      <point x="319.562093219" y="1163.79813143" type="line"/>
      <point x="1018.67342011" y="1163.79813143" type="line"/>
      <point x="1029.71745748" y="1341.73577577" type="line"/>
      <point x="174.481944153" y="1341.73577577" type="line"/>
    </contour>
  </outline>
</glyph>
<glyph name="I" format="1">
  <advance width="585.518055847"/>
  <unicode hex="0049"/>
  <outline>
    <contour>
      <point x="294.121719505" y="431.457799706" type="move" name="top"/>
    </contour>
    <contour>
      <point x="525.992074323" y="10.0" type="move" name="ogonek"/>
    </contour>
    <contour>
      <point x="177.844635734" y="0.0" type="line"/>
      <point x="410.398803275" y="0.0" type="line"/>
      <point x="410.398803275" y="1341.73577577" type="line"/>
      <point x="177.844635734" y="1341.73577577" type="line"/>
    </contour>
  </outline>
</glyph>
<glyph name="L" format="1">
  <advance width="1074.70459794"/>
  <unicode hex="004C"/>
  <outline>
    <contour>
      <point x="538.660560571" y="429.864528658" type="move" name="top"/>
    </contour>
    <contour>
      <point x="538.660560571" y="0.0" type="move" name="bottom"/>
    </contour>
    <contour>
      <point x="174.481944153" y="0.0" type="line"/>
      <point x="1015.56209322" y="0.0" type="line"/>
      <point x="1025.10093429" y="175.21226118" type="line"/>
      <point x="326.100934285" y="175.21226118" type="line"/>
      <point x="407.036111694" y="93.6397753517" type="line"/>
      <point x="407.036111694" y="1341.73577577" type="line"/>
      <point x="174.481944153" y="1341.73577577" type="line"/>
    </contour>
  </outline>
</glyph>
<glyph name="P" format="1">
  <advance width="1227.36515851"/>
  <unicode hex="0050"/>
  <outline>
    <contour>
      <point x="174.481944153" y="0.0" type="line"/>
      <point x="407.036111694" y="0.0" type="line"/>
      <point x="407.036111694" y="602.754094058" type="line"/>
      <point x="345.178616418" y="543.995066135" type="line"/>
      <point x="390.82878438" y="539.906991392"/>
      <point x="635.01039261" y="536.50026244"/>
      <point x="670.440373714" y="536.50026244" type="curve" smooth="yes"/>
      <point x="1027.25629855" y="536.50026244"/>
      <point x="1157.34437329" y="711.601196725"/>
      <point x="1157.34437329" y="952.007925677" type="curve" smooth="yes"/>
      <point x="1157.34437329" y="1220.80059836"/>
      <point x="950.958429561" y="1341.73577577"/>
      <point x="672.033644762" y="1341.73577577" type="curve" smooth="yes"/>
      <point x="174.481944153" y="1341.73577577" type="line"/>
    </contour>
    <contour>
      <point x="653.362691581" y="697.40426202" type="curve"/>
      <point x="346.90399958" y="697.40426202" type="line"/>
      <point x="407.036111694" y="637.875813563" type="line"/>
      <point x="407.036111694" y="1229.10639303" type="line"/>
      <point x="346.90399958" y="1170.61158933" type="line"/>
      <point x="670.484411085" y="1170.61158933" type="line" smooth="yes"/>
      <point x="835.3082616" y="1170.61158933"/>
      <point x="924.790205753" y="1101.30332773"/>
      <point x="924.790205753" y="946.875813563" type="curve" smooth="yes"/>
      <point x="924.790205753" y="802.966355238"/>
      <point x="882.429981104" y="697.40426202"/>
    </contour>
  </outline>
</glyph>
<glyph name="Q" format="1">
  <advance width="1559.13211211"/>
  <unicode hex="0051"/>
  <outline>
    <contour>
      <point x="1167.96635524" y="-435.144971657" type="curve"/>
      <point x="1303.18900903" y="-315.549233676" type="line"/>
      <point x="1203.66056057" y="-215.064822591"/>
      <point x="1097.46362587" y="-48.8886731052"/>
      <point x="1051.18900903" y="35.6709531808" type="curve"/>
      <point x="859.668486248" y="-8.35229897124" type="line"/>
      <point x="939.217719924" y="-158.31865421"/>
      <point x="1077.72291623" y="-364.792672685"/>
    </contour>
    <component base="O"/>
  </outline>
</glyph>
<glyph name="S" format="1">
  <advance width="1156.53628543"/>
  <unicode hex="0053"/>
  <outline>
    <contour>
      <point x="586.769420533" y="429.864528658" type="move" name="top"/>
    </contour>
    <contour>
      <point x="586.769420533" y="0.0" type="move" name="bottom"/>
    </contour>
    <contour>
      <point x="570.769420533" y="-18.0" type="curve" smooth="yes"/>
      <point x="844.474018476" y="-18.0"/>
      <point x="1044.33151375" y="103.704597942"/>
      <point x="1049.11132689" y="368.891140038" type="curve" smooth="yes"/>
      <point x="1053.25383162" y="593.220186857"/>
      <point x="930.090541675" y="686.518055847"/>
      <point x="712.6165232" y="762.924784799" type="curve"/>
      <point x="503.023252152" y="838.023252152" type="line" smooth="yes"/>
      <point x="410.795139618" y="872.044037371"/>
      <point x="369.015326475" y="915.31865421"/>
      <point x="370.927251732" y="1001.98714046" type="curve" smooth="yes"/>
      <point x="373.476485408" y="1133.52351459"/>
      <point x="476.155364266" y="1177.07274827"/>
      <point x="615.847102666" y="1177.07274827" type="curve" smooth="yes"/>
      <point x="750.142504724" y="1177.07274827"/>
      <point x="873.637308419" y="1115.78773882"/>
      <point x="944.924784799" y="1082.47947722" type="curve"/>
      <point x="1017.36515851" y="1252.27461684" type="line"/>
      <point x="915.803065295" y="1315.53884107"/>
      <point x="769.626915809" y="1362.46115893"/>
      <point x="612.176149486" y="1362.46115893" type="curve" smooth="yes"/>
      <point x="363.614056267" y="1362.46115893"/>
      <point x="158.329046819" y="1253.7669536"/>
      <point x="153.867887886" y="996.987140458" type="curve" smooth="yes"/>
      <point x="151.0" y="810.492336763"/>
      <point x="258.505196305" y="706.963888306"/>
      <point x="424.647701029" y="648.865420953" type="curve" smooth="yes"/>
      <point x="648.01039261" y="571.40426202" type="line" smooth="yes"/>
      <point x="778.469084611" y="524.427514172"/>
      <point x="833.469084611" y="474.515588915"/>
      <point x="831.238505144" y="370.341906362" type="curve" smooth="yes"/>
      <point x="828.370617258" y="225.036111694"/>
      <point x="742.481944153" y="166.025719085"/>
      <point x="579.176149486" y="166.025719085" type="curve" smooth="yes"/>
      <point x="429.968822171" y="166.025719085"/>
      <point x="286.088074743" y="215.717457485"/>
      <point x="204.626915809" y="271.771887466" type="curve"/>
      <point x="133.735775772" y="99.1088599622" type="line"/>
      <point x="227.748635314" y="41.0752152005"/>
      <point x="368.958429561" y="-18.0"/>
    </contour>
  </outline>
</glyph>
<glyph name="V" format="1">
  <advance width="1330.13457905"/>
  <unicode hex="0056"/>
  <outline>
    <contour>
      <point x="541.810990972" y="0.0" type="line"/>
      <point x="787.279550703" y="0.0" type="line"/>
      <point x="1264.85996221" y="1341.73577577" type="line"/>
      <point x="1020.36022465" y="1341.73577577" type="line"/>
      <point x="758.3082616" y="544.937644342" type="line"/>
      <point x="636.704597942" y="158.815924837" type="line"/>
      <point x="699.562093219" y="158.815924837" type="line"/>
      <point x="576.233046399" y="542.663027504" type="line"/>
      <point x="311.455700189" y="1341.73577577" type="line"/>
      <point x="65.2746168381" y="1341.73577577" type="line"/>
    </contour>
  </outline>
</glyph>
<glyph name="bracketleft" format="1">
  <advance width="705.971289104"/>
  <unicode hex="005B"/>
  <outline>
    <contour>
      <point x="169.002466933" y="-165.039103506" type="line"/>
      <point x="590.486878018" y="-165.039103506" type="line"/>
      <point x="590.486878018" y="-16.2231786689" type="line"/>
      <point x="365.567027084" y="-16.2231786689" type="line"/>
      <point x="365.567027084" y="1259.73577577" type="line"/>
      <point x="590.486878018" y="1259.73577577" type="line"/>
      <point x="590.486878018" y="1408.50766324" type="line"/>
      <point x="169.002466933" y="1408.50766324" type="line"/>
    </contour>
  </outline>
</glyph>
<glyph name="backslash" format="1">
  <advance width="860.207327315"/>
  <unicode hex="005C"/>
  <outline>
    <contour>
      <point x="579.78773882" y="-17.8446357338" type="line"/>
      <point x="758.945570019" y="-17.8446357338" type="line"/>
      <point x="289.486878018" y="1341.73577577" type="line"/>
      <point x="107.240972076" y="1341.73577577" type="line"/>
    </contour>
  </outline>
</glyph>
<glyph name="underscore" format="1">
  <advance width="1010.40672895"/>
  <unicode hex="005F"/>
  <outline>
    <contour>
      <point x="62.7021310099" y="-208.458692001" type="line"/>
      <point x="943.880747428" y="-208.458692001" type="line"/>
      <point x="943.880747428" y="-61.5002624396" type="line"/>
      <point x="62.7021310099" y="-61.5002624396" type="line"/>
    </contour>
  </outline>
</glyph>
<glyph name="a" format="1">
  <advance width="1071.91192526"/>
  <unicode hex="0061"/>
  <outline>
    <contour>
      <point x="522.406728952" y="314.193050598" type="move" name="top"/>
    </contour>
    <contour>
      <point x="963.935177409" y="10.0" type="move" name="ogonek"/>
    </contour>
    <contour>
      <point x="429.088074743" y="-16.7253831619" type="curve" smooth="yes"/>
      <point x="565.077682133" y="-16.7253831619"/>
      <point x="704.31865421" y="59.60613059"/>
      <point x="786.437906781" y="180.966355238" type="curve"/>
      <point x="741.173682553" y="198.0" type="line"/>
      <point x="779.844635734" y="1.27461683813" type="line"/>
      <point x="934.792672685" y="1.27461683813" type="line"/>
      <point x="934.792672685" y="658.725383162" type="line"/>
      <point x="934.792672685" y="924.132112114"/>
      <point x="800.59573798" y="1029.52844846"/>
      <point x="548.979214781" y="1029.52844846" type="curve" smooth="yes"/>
      <point x="412.813457905" y="1029.52844846"/>
      <point x="265.857495276" y="994.572485828"/>
      <point x="160.196934705" y="950.253831619" type="curve"/>
      <point x="162.746168381" y="942.924784799"/>
      <point x="202.186542095" y="810.855028343"/>
      <point x="205.373084191" y="803.844635734" type="curve"/>
      <point x="297.098467353" y="843.305794667"/>
      <point x="442.769420533" y="873.349832039"/>
      <point x="534.230579467" y="873.349832039" type="curve" smooth="yes"/>
      <point x="658.217719924" y="873.349832039"/>
      <point x="725.678878858" y="813.6917384"/>
      <point x="725.678878858" y="684.857495276" type="curve" smooth="yes"/>
      <point x="725.678878858" y="584.199401638" type="line"/>
      <point x="762.492336763" y="620.60613059" type="line"/>
      <point x="732.513121982" y="617.880747428"/>
      <point x="586.461158933" y="611.748635314"/>
      <point x="545.580411505" y="606.979214781" type="curve" smooth="yes"/>
      <point x="264.857495276" y="589.264224228"/>
      <point x="113.911925257" y="494.29786899"/>
      <point x="113.911925257" y="275.077682133" type="curve" smooth="yes"/>
      <point x="113.911925257" y="78.2746168381"/>
      <point x="251.813457905" y="-16.7253831619"/>
    </contour>
    <contour>
      <point x="464.738242704" y="133.321121142" type="curve" smooth="yes"/>
      <point x="378.826317447" y="133.321121142"/>
      <point x="320.618990132" y="181.870354818"/>
      <point x="320.618990132" y="277.440373714" type="curve" smooth="yes"/>
      <point x="320.618990132" y="406.549233676"/>
      <point x="396.883214361" y="474.790205753"/>
      <point x="617.0" y="485.01039261" type="curve"/>
      <point x="617.0" y="485.01039261"/>
      <point x="739.326579887" y="489.779813143"/>
      <point x="752.953495696" y="491.142504724" type="curve"/>
      <point x="724.997533067" y="521.098467353" type="line"/>
      <point x="724.997533067" y="225.088074743" type="line"/>
      <point x="761.810990972" y="308.559626286" type="line"/>
      <point x="717.725383162" y="220.530915389"/>
      <point x="589.945570019" y="133.321121142"/>
    </contour>
  </outline>
</glyph>
<glyph name="b" format="1">
  <advance width="1163.8782805"/>
  <unicode hex="0062"/>
  <outline>
    <contour>
      <point x="648.396336343" y="-18.0" type="curve" smooth="yes"/>
      <point x="912.230579467" y="-18.0"/>
      <point x="1068.40672895" y="194.98960739"/>
      <point x="1068.40672895" y="508.484411085" type="curve" smooth="yes"/>
      <point x="1068.40672895" y="812.945570019"/>
      <point x="922.867887886" y="1029.20979425"/>
      <point x="653.670953181" y="1029.20979425" type="curve" smooth="yes"/>
      <point x="501.385943733" y="1029.20979425"/>
      <point x="383.551700609" y="939.60613059"/>
      <point x="322.189009028" y="836.256298551" type="curve"/>
      <point x="352.189009028" y="823.992074323" type="line"/>
      <point x="356.277083771" y="1049.0465043" type="line"/>
      <point x="356.277083771" y="1392.68134579" type="line"/>
      <point x="144.570018896" y="1377.91192526" type="line"/>
      <point x="144.570018896" y="0.681345790468" type="line"/>
      <point x="323.189009028" y="0.681345790468" type="line"/>
      <point x="347.683812723" y="209.875813563" type="line"/>
      <point x="304.727850094" y="196.974280915" type="line"/>
      <point x="356.717457485" y="93.3265798866"/>
      <point x="483.849569599" y="-18.0"/>
    </contour>
    <contour>
      <point x="607.064822591" y="143.629382742" type="curve" smooth="yes"/>
      <point x="452.6165232" y="143.629382742"/>
      <point x="351.91439219" y="259.792672685"/>
      <point x="351.91439219" y="520.3082616" type="curve"/>
      <point x="352.958429561" y="751.264224228"/>
      <point x="448.189009028" y="868.261757296"/>
      <point x="613.020785219" y="868.261757296" type="curve" smooth="yes"/>
      <point x="773.072748268" y="868.261757296"/>
      <point x="857.655626706" y="742.396336343"/>
      <point x="857.655626706" y="507.077682133" type="curve" smooth="yes"/>
      <point x="857.655626706" y="267.935177409"/>
      <point x="765.842168801" y="143.629382742"/>
    </contour>
  </outline>
</glyph>
<glyph name="d" format="1">
  <advance width="1161.32904682"/>
  <unicode hex="0064"/>
  <outline>
    <contour>
      <point x="578.264224228" y="156.77787109" type="move" name="center"/>
    </contour>
    <contour>
      <point x="519.658093638" y="-17.3186542095" type="curve" smooth="yes"/>
      <point x="725.349832039" y="-17.3186542095"/>
      <point x="810.272149906" y="102.658093638"/>
      <point x="854.502729372" y="203.425047239" type="curve"/>
      <point x="809.919850934" y="204.699664077" type="line"/>
      <point x="837.865420953" y="0.0" type="line"/>
      <point x="1016.75902792" y="0.0" type="line"/>
      <point x="1016.75902792" y="1392.68134579" type="line"/>
      <point x="806.007925677" y="1377.91192526" type="line"/>
      <point x="806.007925677" y="1056.77981314" type="line" smooth="yes"/>
      <point x="816.326579887" y="818.652634894" type="line"/>
      <point x="851.458692001" y="834.554167541" type="line"/>
      <point x="793.184075163" y="945.168223809"/>
      <point x="698.10639303" y="1029.20979425"/>
      <point x="518.70213101" y="1029.20979425" type="curve" smooth="yes"/>
      <point x="254.790205753" y="1029.20979425"/>
      <point x="95.4715515431" y="816.759027924"/>
      <point x="95.4715515431" y="511.264224228" type="curve" smooth="yes"/>
      <point x="95.4715515431" y="195.220186857"/>
      <point x="250.373084191" y="-17.3186542095"/>
    </contour>
    <contour>
      <point x="556.538841067" y="143.629382742" type="curve" smooth="yes"/>
      <point x="389.948036952" y="143.629382742"/>
      <point x="306.22265379" y="270.538841067"/>
      <point x="306.22265379" y="507.220186857" type="curve" smooth="yes"/>
      <point x="306.22265379" y="751.132112114"/>
      <point x="408.442840647" y="866.899065715"/>
      <point x="566.264224228" y="866.899065715" type="curve" smooth="yes"/>
      <point x="722.481944153" y="866.899065715"/>
      <point x="814.458692001" y="757.088074743"/>
      <point x="814.458692001" y="492.220186857" type="curve"/>
      <point x="813.09600042" y="261.264224228"/>
      <point x="727.909458325" y="143.629382742"/>
    </contour>
  </outline>
</glyph>
<glyph name="g" format="1">
  <advance width="1163.88867311"/>
  <unicode hex="0067"/>
  <outline>
    <contour>
      <point x="591.735775772" y="314.193050598" type="move" name="top"/>
    </contour>
    <contour>
      <point x="529.220186857" y="-425.935177409" type="curve" smooth="yes"/>
      <point x="927.70213101" y="-425.935177409"/>
      <point x="1027.95596263" y="-221.935177409"/>
      <point x="1027.95596263" y="129.880747428" type="curve" smooth="yes"/>
      <point x="1027.95596263" y="1007.1217195" type="line"/>
      <point x="839.194467772" y="1007.1217195" type="line"/>
      <point x="822.78773882" y="815.958429561" type="line"/>
      <point x="856.513121982" y="822.090541675" type="line"/>
      <point x="794.930243544" y="968.992074323"/>
      <point x="685.062355658" y="1029.20979425"/>
      <point x="532.987140458" y="1029.20979425" type="curve" smooth="yes"/>
      <point x="261.979214781" y="1029.20979425"/>
      <point x="95.4715515431" y="814.805532228"/>
      <point x="95.4715515431" y="506.891140038" type="curve" smooth="yes"/>
      <point x="95.4715515431" y="232.119252572"/>
      <point x="242.31865421" y="0.0"/>
      <point x="522.39386941" y="0.0" type="curve" smooth="yes"/>
      <point x="687.47947722" y="0.0"/>
      <point x="820.336972496" y="101.943103086"/>
      <point x="865.238505144" y="248.240972076" type="curve"/>
      <point x="821.018318287" y="254.417121562" type="line"/>
      <point x="821.699664077" y="48.1192525719" type="line"/>
      <point x="821.699664077" y="-162.437906781"/>
      <point x="762.370617258" y="-258.349832039"/>
      <point x="503.901532647" y="-258.349832039" type="curve" smooth="yes"/>
      <point x="415.285009448" y="-258.349832039"/>
      <point x="299.272149906" y="-247.173682553"/>
      <point x="249.888673105" y="-241.173682553" type="curve"/>
      <point x="260.251364686" y="-402.396336343" type="line"/>
      <point x="292.150430401" y="-407.626915809"/>
      <point x="408.031177829" y="-425.935177409"/>
    </contour>
    <contour>
      <point x="562.362691581" y="160.585345371" type="curve" smooth="yes"/>
      <point x="380.859962209" y="160.585345371"/>
      <point x="306.22265379" y="337.582878438"/>
      <point x="306.22265379" y="514.528448457" type="curve" smooth="yes"/>
      <point x="306.22265379" y="695.28747638"/>
      <point x="376.22265379" y="866.899065715"/>
      <point x="570.582878438" y="866.899065715" type="curve"/>
      <point x="748.953495696" y="865.536374134"/>
      <point x="824.699664077" y="734.911925257"/>
      <point x="824.699664077" y="539.823850514" type="curve" smooth="yes"/>
      <point x="824.699664077" y="486.331513752" type="line"/>
      <point x="823.336972496" y="305.155364266"/>
      <point x="756.899065715" y="160.585345371"/>
    </contour>
  </outline>
</glyph>
<glyph name="h" format="1">
  <advance width="1136.72538316"/>
  <unicode hex="0068"/>
  <outline>
    <contour>
      <point x="553.725383162" y="314.193050598" type="move" name="top"/>
    </contour>
    <contour>
      <point x="553.725383162" y="157.415179509" type="move" name="center"/>
    </contour>
    <contour>
      <point x="144.570018896" y="0.0" type="line"/>
      <point x="353.277083771" y="0.0" type="line"/>
      <point x="353.277083771" y="515.217719924" type="line" smooth="yes"/>
      <point x="353.277083771" y="707.285009448"/>
      <point x="402.562093219" y="867.580411505"/>
      <point x="614.186542095" y="867.580411505" type="curve" smooth="yes"/>
      <point x="746.075215201" y="867.580411505"/>
      <point x="791.40426202" y="786.790205753"/>
      <point x="791.40426202" y="614.176149486" type="curve" smooth="yes"/>
      <point x="791.40426202" y="0.0" type="line"/>
      <point x="1002.15536427" y="0.0" type="line"/>
      <point x="1002.15536427" y="629.528448457" type="line" smooth="yes"/>
      <point x="1002.15536427" y="896.650167961"/>
      <point x="873.352298971" y="1029.20979425"/>
      <point x="657.440373714" y="1029.20979425" type="curve" smooth="yes"/>
      <point x="501.012859542" y="1029.20979425"/>
      <point x="368.826317447" y="951.023252152"/>
      <point x="302.694205333" y="824.541307999" type="curve"/>
      <point x="346.59573798" y="807.727850094" type="line"/>
      <point x="355.321121142" y="1078.7382427" type="line"/>
      <point x="355.321121142" y="1392.68134579" type="line"/>
      <point x="144.570018896" y="1377.91192526" type="line"/>
    </contour>
  </outline>
</glyph>
<glyph name="i" format="1">
  <advance width="504.748635314"/>
  <unicode hex="0069"/>
  <outline>
    <contour>
      <point x="150.70213101" y="0.0" type="line"/>
      <point x="361.453233256" y="0.0" type="line"/>
      <point x="361.453233256" y="1006.44037371" type="line"/>
      <point x="150.70213101" y="1006.44037371" type="line"/>
    </contour>
    <contour>
      <point x="150.70213101" y="1173.5700189" type="line"/>
      <point x="361.453233256" y="1173.5700189" type="line"/>
      <point x="361.453233256" y="1368.3082616" type="line"/>
      <point x="150.70213101" y="1368.3082616" type="line"/>
    </contour>
  </outline>
</glyph>
<glyph name="j" format="1">
  <advance width="542.562093219"/>
  <unicode hex="006A"/>
  <outline>
    <contour>
      <point x="12.2513646861" y="-389.196934705" type="line"/>
      <point x="65.559626286" y="-389.196934705" type="line" smooth="yes"/>
      <point x="344.365158514" y="-389.196934705"/>
      <point x="402.541307999" y="-277.919850934"/>
      <point x="402.541307999" y="-17.0391035062" type="curve" smooth="yes"/>
      <point x="402.541307999" y="1007.1217195" type="line"/>
      <point x="193.196934705" y="1007.1217195" type="line"/>
      <point x="193.196934705" y="-29.4923367625" type="line" smooth="yes"/>
      <point x="193.196934705" y="-187.557159353"/>
      <point x="184.020785219" y="-223.963888306"/>
      <point x="42.3834768003" y="-223.963888306" type="curve" smooth="yes"/>
      <point x="-11.6501679614" y="-223.963888306" type="line"/>
    </contour>
    <contour>
      <point x="193.196934705" y="1173.5700189" type="line"/>
      <point x="402.541307999" y="1173.5700189" type="line"/>
      <point x="402.541307999" y="1368.3082616" type="line"/>
      <point x="193.196934705" y="1368.3082616" type="line"/>
    </contour>
  </outline>
</glyph>
<glyph name="k" format="1">
  <advance width="1073.46362587"/>
  <unicode hex="006B"/>
  <outline>
    <contour>
      <point x="532.253831619" y="0.0" type="move" name="bottom"/>
    </contour>
    <contour>
      <point x="144.570018896" y="0.0" type="line"/>
      <point x="355.321121142" y="0.0" type="line"/>
      <point x="355.321121142" y="412.077682133" type="line"/>
      <point x="304.243439009" y="304.834243124" type="line"/>
      <point x="491.924784799" y="480.329046819" type="line"/>
      <point x="424.660560571" y="480.329046819" type="line"/>
      <point x="807.39386941" y="0.0" type="line"/>
      <point x="1054.541308" y="0.0" type="line"/>
      <point x="576.82878438" y="596.199401638" type="line"/>
      <point x="576.82878438" y="501.955962629" type="line"/>
      <point x="1036.27708377" y="1006.44037371" type="line"/>
      <point x="773.821383582" y="1006.44037371" type="line"/>
      <point x="309.463625866" y="499.046504304" type="line"/>
      <point x="348.639775352" y="499.046504304" type="line"/>
      <point x="355.321121142" y="744.21226118" type="line"/>
      <point x="355.321121142" y="1392.0" type="line"/>
      <point x="144.570018896" y="1377.91192526" type="line"/>
    </contour>
  </outline>
</glyph>
<glyph name="l" format="1">
  <advance width="639.761494856"/>
  <unicode hex="006C"/>
  <outline>
    <contour>
      <point x="264.6165232" y="314.193050598" type="move" name="top"/>
    </contour>
    <contour>
      <point x="535.113793827" y="314.193050598" type="move" name="topright"/>
    </contour>
    <contour>
      <point x="264.6165232" y="0.0" type="move" name="bottom"/>
    </contour>
    <contour>
      <point x="468.111326895" y="-12.0440373714" type="curve" smooth="yes"/>
      <point x="539.60613059" y="-12.0440373714"/>
      <point x="599.144971657" y="2.45076632375"/>
      <point x="610.28747638" y="5.45076632375" type="curve"/>
      <point x="610.28747638" y="151.992074323" type="line"/>
      <point x="593.111326895" y="150.310728532"/>
      <point x="535.660560571" y="142.948036952"/>
      <point x="499.012859542" y="142.948036952" type="curve" smooth="yes"/>
      <point x="401.585345371" y="142.948036952"/>
      <point x="355.321121142" y="176.958429561"/>
      <point x="355.321121142" y="349.191475961" type="curve" smooth="yes"/>
      <point x="355.321121142" y="1392.68134579" type="line"/>
      <point x="144.570018896" y="1377.91192526" type="line"/>
      <point x="144.570018896" y="350.333980684" type="line" smooth="yes"/>
      <point x="144.570018896" y="93.4091958849"/>
      <point x="240.502729372" y="-12.0440373714"/>
    </contour>
  </outline>
</glyph>
<glyph name="o" format="1">
  <advance width="1162.26422423"/>
  <unicode hex="006F"/>
  <outline>
    <contour>
      <point x="581.132112114" y="314.193050598" type="move" name="top"/>
    </contour>
    <contour>
      <point x="581.450766324" y="142.948036952" type="curve" smooth="yes"/>
      <point x="404.958429561" y="142.948036952"/>
      <point x="305.90399958" y="280.803065295"/>
      <point x="305.90399958" y="504.352298971" type="curve" smooth="yes"/>
      <point x="305.90399958" y="728.725383162"/>
      <point x="406.321121142" y="867.580411505"/>
      <point x="581.450766324" y="867.580411505" type="curve" smooth="yes"/>
      <point x="759.855028343" y="867.580411505"/>
      <point x="856.997533067" y="728.406728952"/>
      <point x="856.997533067" y="504.033644762" type="curve" smooth="yes"/>
      <point x="856.997533067" y="279.440373714"/>
      <point x="760.129645182" y="142.948036952"/>
    </contour>
    <contour>
      <point x="581.450766324" y="-18.0" type="curve" smooth="yes"/>
      <point x="876.704597942" y="-18.0"/>
      <point x="1067.11132689" y="190.735775772"/>
      <point x="1067.11132689" y="504.98960739" type="curve" smooth="yes"/>
      <point x="1067.11132689" y="820.660560571"/>
      <point x="877.176149486" y="1029.20979425"/>
      <point x="581.450766324" y="1029.20979425" type="curve" smooth="yes"/>
      <point x="280.779813143" y="1029.20979425"/>
      <point x="95.7902057527" y="824.518055847"/>
      <point x="95.7902057527" y="504.98960739" type="curve" smooth="yes"/>
      <point x="95.7902057527" y="193.186542095"/>
      <point x="289.637308419" y="-18.0"/>
    </contour>
  </outline>
</glyph>
<glyph name="q" format="1">
  <advance width="1174.71252362"/>
  <unicode hex="0071"/>
  <outline>
    <contour>
      <point x="820.028710896" y="-421.064822591" type="line"/>
      <point x="1030.14250472" y="-408.932710477" type="line"/>
      <point x="1030.14250472" y="1006.44037371" type="line"/>
      <point x="843.062355658" y="1006.44037371" type="line"/>
      <point x="819.336972496" y="810.409195885" type="line"/>
      <point x="861.051963048" y="822.948036952" type="line"/>
      <point x="807.502729372" y="927.935177409"/>
      <point x="711.305794667" y="1029.20979425"/>
      <point x="525.800598362" y="1029.20979425" type="curve" smooth="yes"/>
      <point x="249.976747848" y="1029.20979425"/>
      <point x="95.4715515431" y="808.077682133"/>
      <point x="95.4715515431" y="502.803065295" type="curve" smooth="yes"/>
      <point x="95.4715515431" y="198.813457905"/>
      <point x="267.295402058" y="-18.0"/>
      <point x="526.932710477" y="-18.0" type="curve" smooth="yes"/>
      <point x="707.028710896" y="-18.0"/>
      <point x="810.940636154" y="79.7229162293"/>
      <point x="874.425047239" y="212.370617258" type="curve"/>
      <point x="826.347365106" y="231.414654629" type="line"/>
      <point x="820.028710896" y="-21.6011967248" type="line"/>
    </contour>
    <contour>
      <point x="563.054429981" y="142.266691161" type="curve" smooth="yes"/>
      <point x="397.551700609" y="142.266691161"/>
      <point x="305.585345371" y="271.528448457"/>
      <point x="305.585345371" y="505.264224228" type="curve" smooth="yes"/>
      <point x="305.585345371" y="738.582878438"/>
      <point x="397.046504304" y="866.899065715"/>
      <point x="561.647701029" y="866.899065715" type="curve" smooth="yes"/>
      <point x="740.743701449" y="866.899065715"/>
      <point x="824.292935125" y="746.0"/>
      <point x="824.292935125" y="506.152897334" type="curve"/>
      <point x="823.204860382" y="259.813457905"/>
      <point x="744.435439849" y="142.266691161"/>
    </contour>
  </outline>
</glyph>
<glyph name="t" format="1">
  <advance width="805.321121142"/>
  <unicode hex="0074"/>
  <outline>
    <contour>
      <point x="374.803065295" y="157.415179509" type="move" name="center"/>
    </contour>
    <contour>
      <point x="374.803065295" y="0.0" type="move" name="bottom"/>
    </contour>
    <contour>
      <point x="543.91439219" y="-12.0440373714" type="curve" smooth="yes"/>
      <point x="645.683812723" y="-12.0440373714"/>
      <point x="730.574952761" y="13.1761494856"/>
      <point x="736.025719085" y="15.220186857" type="curve"/>
      <point x="736.025719085" y="154.992074323" type="line"/>
      <point x="732.618990132" y="152.948036952"/>
      <point x="647.310728532" y="138.859962209"/>
      <point x="586.080149066" y="138.859962209" type="curve" smooth="yes"/>
      <point x="487.398803275" y="138.859962209"/>
      <point x="424.442840647" y="185.036111694"/>
      <point x="424.442840647" y="347.442840647" type="curve" smooth="yes"/>
      <point x="424.442840647" y="915.339439429" type="line"/>
      <point x="387.629382742" y="873.349832039" type="line"/>
      <point x="708.365158514" y="873.349832039" type="line"/>
      <point x="708.365158514" y="1006.44037371" type="line"/>
      <point x="386.948036952" y="1006.44037371" type="line"/>
      <point x="424.442840647" y="960.406728952" type="line"/>
      <point x="424.442840647" y="1259.07768213" type="line"/>
      <point x="276.538841067" y="1257.48441109" type="line"/>
      <point x="219.240972076" y="964.176149486" type="line"/>
      <point x="278.264224228" y="1008.80306529" type="line"/>
      <point x="69.559626286" y="995.396336343" type="line"/>
      <point x="60.0207852194" y="874.031177829" type="line"/>
      <point x="250.505196305" y="874.031177829" type="line"/>
      <point x="213.6917384" y="916.339439429" type="line"/>
      <point x="213.6917384" y="350.256298551" type="line"/>
      <point x="214.373084191" y="107.518055847"/>
      <point x="314.196934705" y="-12.0440373714"/>
    </contour>
  </outline>
</glyph>
<glyph name="x" format="1">
  <advance width="1057.13457905"/>
  <unicode hex="0078"/>
  <outline>
    <contour>
      <point x="43.559626286" y="0.0" type="line"/>
      <point x="270.608597523" y="0.0" type="line"/>
      <point x="545.518055847" y="396.855028343" type="line"/>
      <point x="627.168223809" y="470.867887886" type="line"/>
      <point x="1000.21226118" y="1006.44037371" type="line"/>
      <point x="773.163289943" y="1006.44037371" type="line"/>
      <point x="511.484411085" y="625.849569599" type="line"/>
      <point x="426.746168381" y="548.067289523" type="line"/>
    </contour>
    <contour>
      <point x="781.844635734" y="0.0" type="line"/>
      <point x="1014.21226118" y="0.0" type="line"/>
      <point x="286.652634894" y="1006.44037371" type="line"/>
      <point x="56.6477010288" y="1006.44037371" type="line"/>
    </contour>
  </outline>
</glyph>
<glyph name="z" format="1">
  <advance width="929.541307999"/>
  <unicode hex="007A"/>
  <outline>
    <contour>
      <point x="461.033644762" y="314.193050598" type="move" name="top"/>
    </contour>
    <contour>
      <point x="107.186542095" y="0.0" type="line"/>
      <point x="835.124186437" y="0.0" type="line"/>
      <point x="835.124186437" y="155.673420113" type="line"/>
      <point x="290.004933865" y="155.673420113" type="line"/>
      <point x="309.598204913" y="91.046504304" type="line"/>
      <point x="822.629382742" y="861.668486248" type="line"/>
      <point x="822.629382742" y="1006.44037371" type="line"/>
      <point x="128.549233676" y="1006.44037371" type="line"/>
      <point x="128.549233676" y="856.217719924" type="line"/>
      <point x="656.932710477" y="856.217719924" type="line"/>
      <point x="632.525981524" y="914.119252572" type="line"/>
      <point x="107.186542095" y="132.189009028" type="line"/>
    </contour>
  </outline>
</glyph>
<glyph name="bar" format="1">
  <advance width="478.812933025"/>
  <unicode hex="007C"/>
  <outline>
    <contour>
      <point x="163.927251732" y="-295.831776191" type="line"/>
      <point x="326.370092379" y="-295.831776191" type="line"/>
      <point x="326.370092379" y="1456.31865421" type="line"/>
      <point x="163.927251732" y="1456.31865421" type="line"/>
    </contour>
  </outline>
</glyph>
<glyph name="asciitilde" format="1">
  <advance width="1135.17614949"/>
  <unicode hex="007E"/>
  <outline>
    <contour>
      <point x="168.59573798" y="446.064822591" type="line"/>
      <point x="208.100934285" y="519.437906781"/>
      <point x="273.385943733" y="583.305794667"/>
      <point x="353.6165232" y="583.305794667" type="curve" smooth="yes"/>
      <point x="418.253831619" y="583.305794667"/>
      <point x="478.176149486" y="556.844635734"/>
      <point x="558.152897334" y="520.108859962" type="curve"/>
      <point x="639.329046819" y="483.70213101"/>
      <point x="704.922317867" y="457.339439429"/>
      <point x="781.725383162" y="457.339439429" type="curve" smooth="yes"/>
      <point x="906.077682133" y="457.339439429"/>
      <point x="1001.59573798" y="537.01039261"/>
      <point x="1048.63977535" y="637.844635734" type="curve"/>
      <point x="985.6165232" y="747.264224228" type="line"/>
      <point x="928.823850514" y="666.176149486"/>
      <point x="861.769420533" y="616.518055847"/>
      <point x="790.3082616" y="616.518055847" type="curve" smooth="yes"/>
      <point x="737.440373714" y="616.518055847"/>
      <point x="671.792672685" y="644.528448457"/>
      <point x="588.331513752" y="680.803065295" type="curve" smooth="yes"/>
      <point x="504.365158514" y="717.626915809"/>
      <point x="435.792672685" y="741.077682133"/>
      <point x="359.385943733" y="741.077682133" type="curve" smooth="yes"/>
      <point x="229.670953181" y="741.077682133"/>
      <point x="150.077682133" y="659.98960739"/>
      <point x="105.3082616" y="561.440373714" type="curve"/>
    </contour>
  </outline>
</glyph>
<glyph name="exclamdown" format="1">
  <advance width="439.215252992"/>
  <unicode hex="00A1"/>
  <outline>
    <contour>
      <point x="124.051963048" y="-0.813457904682" type="line"/>
      <point x="327.823850514" y="-0.813457904682" type="line"/>
      <point x="327.823850514" y="165.080149066" type="line"/>
      <point x="271.098467353" y="941.678878858" type="line"/>
      <point x="180.360224648" y="941.678878858" type="line"/>
      <point x="124.051963048" y="165.080149066" type="line"/>
    </contour>
    <contour>
      <point x="223.668486248" y="1092.52351459" type="curve" smooth="yes"/>
      <point x="305.075215201" y="1092.52351459"/>
      <point x="355.966355238" y="1156.38100987"/>
      <point x="355.966355238" y="1225.18407516" type="curve" smooth="yes"/>
      <point x="355.966355238" y="1294.30579467"/>
      <point x="305.075215201" y="1357.11925257"/>
      <point x="223.668486248" y="1357.11925257" type="curve" smooth="yes"/>
      <point x="141.943103086" y="1357.11925257"/>
      <point x="91.3265798866" y="1294.66848625"/>
      <point x="91.3265798866" y="1225.18407516" type="curve" smooth="yes"/>
      <point x="91.3265798866" y="1156.38100987"/>
      <point x="141.580411505" y="1092.52351459"/>
    </contour>
  </outline>
</glyph>
<glyph name="yen" format="1">
  <advance width="1122.47701029"/>
  <unicode hex="00A5"/>
  <outline>
    <contour>
      <point x="472.906991392" y="0.0" type="line"/>
      <point x="664.406728952" y="0.0" type="line"/>
      <point x="664.406728952" y="264.966355238" type="line"/>
      <point x="977.230579467" y="264.966355238" type="line"/>
      <point x="977.230579467" y="402.562093219" type="line"/>
      <point x="664.406728952" y="402.562093219" type="line"/>
      <point x="664.406728952" y="539.746168381" type="line"/>
      <point x="976.593271048" y="539.746168381" type="line"/>
      <point x="976.593271048" y="672.484411085" type="line"/>
      <point x="716.650167961" y="672.484411085" type="line"/>
      <point x="1099.88074743" y="1341.41712156" type="line"/>
      <point x="892.248897754" y="1341.41712156" type="line"/>
      <point x="567.590804115" y="756.91439219" type="line"/>
      <point x="245.437906781" y="1341.41712156" type="line"/>
      <point x="32.8060571069" y="1341.41712156" type="line"/>
      <point x="414.751627126" y="672.484411085" type="line"/>
      <point x="158.984673525" y="672.484411085" type="line"/>
      <point x="158.984673525" y="539.746168381" type="line"/>
      <point x="472.906991392" y="539.746168381" type="line"/>
      <point x="472.906991392" y="402.562093219" type="line"/>
      <point x="158.347365106" y="402.562093219" type="line"/>
      <point x="158.347365106" y="264.966355238" type="line"/>
      <point x="472.906991392" y="264.966355238" type="line"/>
    </contour>
  </outline>
</glyph>
<glyph name="brokenbar" format="1">
  <advance width="539.872296872"/>
  <unicode hex="00A6"/>
  <outline>
    <contour>
      <point x="192.390877598" y="-350.70213101" type="line"/>
      <point x="355.152372454" y="-350.70213101" type="line"/>
      <point x="355.152372454" y="305.189009028" type="line"/>
      <point x="192.390877598" y="305.189009028" type="line"/>
    </contour>
    <contour>
      <point x="192.390877598" y="767.997533067" type="line"/>
      <point x="355.152372454" y="767.997533067" type="line"/>
      <point x="355.152372454" y="1422.25136469" type="line"/>
      <point x="192.390877598" y="1422.25136469" type="line"/>
    </contour>
  </outline>
</glyph>
<glyph name="dieresis" format="1">
  <advance width="690.790205753"/>
  <unicode hex="00A8"/>
  <outline>
    <contour>
      <point x="351.801831829" y="314.193050598" type="move" name="_top"/>
    </contour>
    <contour>
      <point x="87.5363741339" y="1130.47155154" type="line"/>
      <point x="251.901532647" y="1130.47155154" type="line"/>
      <point x="251.901532647" y="1348.06728952" type="line"/>
      <point x="87.5363741339" y="1348.06728952" type="line"/>
    </contour>
    <contour>
      <point x="451.746168381" y="1130.47155154" type="line"/>
      <point x="615.748635314" y="1130.47155154" type="line"/>
      <point x="615.748635314" y="1348.06728952" type="line"/>
      <point x="451.746168381" y="1348.06728952" type="line"/>
    </contour>
  </outline>
</glyph>
<glyph name="logicalnot" format="1">
  <advance width="1128.36269158"/>
  <unicode hex="00AC"/>
  <outline>
    <contour>
      <point x="865.536374134" y="233.142504724" type="line"/>
      <point x="1018.25383162" y="233.142504724" type="line"/>
      <point x="1018.25383162" y="760.484411085" type="line"/>
      <point x="108.494803695" y="760.484411085" type="line"/>
      <point x="108.494803695" y="601.031177829" type="line"/>
      <point x="865.536374134" y="601.031177829" type="line"/>
    </contour>
  </outline>
</glyph>
<glyph name="macron" format="1">
  <advance width="893.091066555"/>
  <unicode hex="00AF"/>
  <outline>
    <contour>
      <point x="453.491103296" y="314.193050598" type="move" name="_top"/>
    </contour>
    <contour>
      <point x="106.844635734" y="1298.58833718" type="line"/>
      <point x="800.137570859" y="1298.58833718" type="line"/>
      <point x="800.137570859" y="1440.69966408" type="line"/>
      <point x="106.844635734" y="1440.69966408" type="line"/>
    </contour>
  </outline>
</glyph>
<glyph name="acute" format="1">
  <advance width="563.305794667"/>
  <unicode hex="00B4"/>
  <outline>
    <contour>
      <point x="348.21226118" y="314.193050598" type="move" name="_top"/>
    </contour>
    <contour>
      <point x="136.870354818" y="1111.27214991" type="line"/>
      <point x="264.235513332" y="1111.27214991" type="line"/>
      <point x="559.554167541" y="1467.81099097" type="line"/>
      <point x="302.28747638" y="1467.81099097" type="line"/>
    </contour>
  </outline>
</glyph>
<glyph name="paragraph" format="1">
  <advance width="1047.94557002"/>
  <unicode hex="00B6"/>
  <outline>
    <contour>
      <point x="409.381009868" y="-139.417121562" type="line"/>
      <point x="556.274616838" y="-139.417121562" type="line"/>
      <point x="556.274616838" y="1247.58833718" type="line"/>
      <point x="722.018318287" y="1247.58833718" type="line"/>
      <point x="722.018318287" y="-139.417121562" type="line"/>
      <point x="854.966355238" y="-139.417121562" type="line"/>
      <point x="854.966355238" y="1247.58833718" type="line"/>
      <point x="925.098467353" y="1247.58833718" type="line"/>
      <point x="925.098467353" y="1392.18407516" type="line"/>
      <point x="520.924784799" y="1392.18407516" type="line" smooth="yes"/>
      <point x="240.717457485" y="1392.18407516"/>
      <point x="82.4819441528" y="1268.98960739"/>
      <point x="82.4819441528" y="1071.37061726" type="curve" smooth="yes"/>
      <point x="82.4819441528" y="902.743701449"/>
      <point x="216.590804115" y="751.08560781"/>
      <point x="409.381009868" y="739.733308839" type="curve"/>
    </contour>
  </outline>
</glyph>
<glyph name="Eth" format="1">
  <advance width="1423.80605711"/>
  <unicode hex="00D0"/>
  <outline>
    <contour>
      <point x="376.559626286" y="174.036111694" type="line"/>
      <point x="376.559626286" y="613.261757296" type="line"/>
      <point x="576.733308839" y="613.261757296" type="line"/>
      <point x="576.733308839" y="764.033644762" type="line"/>
      <point x="376.559626286" y="764.033644762" type="line"/>
      <point x="376.559626286" y="1179.93024354" type="line"/>
      <point x="538.17121562" y="1179.93024354" type="line" smooth="yes"/>
      <point x="904.137570859" y="1179.93024354"/>
      <point x="1124.82684233" y="1062.91985093"/>
      <point x="1124.82684233" y="668.362691581" type="curve" smooth="yes"/>
      <point x="1124.82684233" y="342.365158514"/>
      <point x="941.344898173" y="174.036111694"/>
      <point x="624.269682973" y="174.036111694" type="curve" smooth="yes"/>
    </contour>
    <contour>
      <point x="173.093533487" y="0.362691580936" type="line"/>
      <point x="607.632374554" y="0.362691580936" type="line" smooth="yes"/>
      <point x="1039.76448667" y="0.362691580936"/>
      <point x="1336.11678564" y="224.264224228"/>
      <point x="1336.11678564" y="670.230579467" type="curve" smooth="yes"/>
      <point x="1336.11678564" y="1180.84463573"/>
      <point x="994.523514592" y="1351.15289733"/>
      <point x="519.577944573" y="1351.15289733" type="curve" smooth="yes"/>
      <point x="173.093533487" y="1351.15289733" type="line"/>
      <point x="173.093533487" y="762.264224228" type="line"/>
      <point x="64.324112954" y="762.264224228" type="line"/>
      <point x="64.324112954" y="611.492336763" type="line"/>
      <point x="173.093533487" y="611.492336763" type="line"/>
    </contour>
  </outline>
</glyph>
<glyph name="multiply" format="1">
  <advance width="1056.97076422"/>
  <unicode hex="00D7"/>
  <outline>
    <contour>
      <point x="283.139512912" y="148.481944153" type="line"/>
      <point x="538.942578207" y="425.041570439" type="line"/>
      <point x="793.382951921" y="148.481944153" type="line"/>
      <point x="907.989082511" y="261.803065295" type="line"/>
      <point x="907.989082511" y="261.803065295"/>
      <point x="676.618465253" y="513.78773882"/>
      <point x="647.94504514" y="544.373084191" type="curve"/>
      <point x="907.989082511" y="829.71252362" type="line"/>
      <point x="794.294877178" y="940.626915809" type="line"/>
      <point x="538.942578207" y="662.704597942" type="line"/>
      <point x="281.864896074" y="940.626915809" type="line"/>
      <point x="169.940111274" y="830.075215201" type="line"/>
      <point x="428.577419693" y="544.373084191" type="line"/>
      <point x="169.940111274" y="261.440373714" type="line"/>
    </contour>
  </outline>
</glyph>
<glyph name="eth" format="1">
  <advance width="1124.71005669"/>
  <unicode hex="00F0"/>
  <outline>
    <contour>
      <point x="571.658093638" y="-20.1865420953" type="curve" smooth="yes"/>
      <point x="873.943103086" y="-20.1865420953"/>
      <point x="1046.73577577" y="164.481944153"/>
      <point x="1046.73577577" y="436.746168381" type="curve"/>
      <point x="1046.05442998" y="566.559626286"/>
      <point x="1013.19693471" y="680.735775772"/>
      <point x="953.054429981" y="787.844635734" type="curve"/>
      <point x="883.922317867" y="905.888673105"/>
      <point x="784.461158933" y="1022.44829939"/>
      <point x="660.880747428" y="1158.11678564" type="curve"/>
      <point x="863.867887886" y="1237.48986983" type="line"/>
      <point x="812.658093638" y="1379.44829939" type="line"/>
      <point x="559.593271048" y="1278.89906571" type="line"/>
      <point x="439.979214781" y="1413.00792568" type="line"/>
      <point x="199.09600042" y="1413.00792568" type="line"/>
      <point x="400.347365106" y="1206.91985093" type="line"/>
      <point x="218.766953601" y="1135.27214991" type="line"/>
      <point x="267.658093638" y="992.083140878" type="line"/>
      <point x="504.360224648" y="1087.77487928" type="line"/>
      <point x="599.453758136" y="993.823850514"/>
      <point x="687.728374974" y="882.98960739"/>
      <point x="727.95895444" y="818.738242704" type="curve"/>
      <point x="683.762019735" y="843.396336343"/>
      <point x="618.598729792" y="874.108859962"/>
      <point x="535.71252362" y="874.108859962" type="curve" smooth="yes"/>
      <point x="269.943103086" y="874.108859962"/>
      <point x="94.173682553" y="699.603663657"/>
      <point x="94.173682553" y="437.779813143" type="curve" smooth="yes"/>
      <point x="94.173682553" y="180.70213101"/>
      <point x="274.966355238" y="-20.1865420953"/>
    </contour>
    <contour>
      <point x="578.020785219" y="139.486878018" type="curve" smooth="yes"/>
      <point x="389.440373714" y="139.486878018"/>
      <point x="289.253831619" y="275.440373714"/>
      <point x="289.253831619" y="437.823850514" type="curve" smooth="yes"/>
      <point x="289.253831619" y="602.064822591"/>
      <point x="391.406728952" y="724.963888306"/>
      <point x="572.020785219" y="724.963888306" type="curve" smooth="yes"/>
      <point x="757.733308839" y="724.963888306"/>
      <point x="861.018318287" y="589.01039261"/>
      <point x="861.018318287" y="430.0" type="curve" smooth="yes"/>
      <point x="861.018318287" y="261.748635314"/>
      <point x="759.458692001" y="139.486878018"/>
    </contour>
  </outline>
</glyph>
<glyph name="IJ" format="1">
  <advance width="1097.02078522"/>
  <unicode hex="0132"/>
  <outline>
    <contour>
      <point x="606.108859962" y="-242.971289104" type="curve" smooth="yes"/>
      <point x="814.085082931" y="-241.378018056"/>
      <point x="912.175624606" y="-145.670953181"/>
      <point x="905.165231997" y="56.6887465883" type="curve" smooth="yes"/>
      <point x="1008.09054168" y="56.6887465883"/>
      <point x="1002.67342011" y="914.366050808"/>
      <point x="1002.67342011" y="999.765378963" type="curve"/>
      <point x="806.445832459" y="1344.23057947" type="line"/>
      <point x="777.766953601" y="515.714098257" type="line" smooth="yes"/>
      <point x="777.766953601" y="415.556267059"/>
      <point x="759.370617258" y="14.7828049549"/>
      <point x="669.432972916" y="14.7828049549" type="curve" smooth="yes"/>
      <point x="653.762019735" y="-26.0049338652"/>
      <point x="627.420113374" y="-61.9247847995"/>
      <point x="539.666019316" y="-57.1553642662" type="curve"/>
      <point x="545.083140878" y="-57.1553642662"/>
      <point x="525.855028343" y="-200.875288684"/>
      <point x="535.09600042" y="-202.149905522" type="curve"/>
      <point x="556.217719924" y="-206.919326055"/>
      <point x="585.668486248" y="-242.971289104"/>
    </contour>
    <contour>
      <point x="133.505196305" y="0.0" type="line"/>
      <point x="358.093008608" y="0.0" type="line"/>
      <point x="358.093008608" y="1344.23057947" type="line"/>
      <point x="133.505196305" y="1344.23057947" type="line"/>
    </contour>
  </outline>
</glyph>
<glyph name="eng" format="1">
  <advance width="1071.59080412"/>
  <unicode hex="014B"/>
  <outline>
    <contour>
      <point x="586.505196305" y="-301.727850094" type="line"/>
      <point x="649.823850514" y="-301.727850094" type="line" smooth="yes"/>
      <point x="940.694205333" y="-301.727850094"/>
      <point x="990.497270628" y="-157.91439219"/>
      <point x="991.178616418" y="123.624448877" type="curve"/>
      <point x="991.178616418" y="625.341906362" type="line" smooth="yes"/>
      <point x="991.178616418" y="885.264224228"/>
      <point x="885.189009028" y="1029.52844846"/>
      <point x="653.056896914" y="1029.52844846" type="curve" smooth="yes"/>
      <point x="511.100934285" y="1029.52844846"/>
      <point x="409.189009028" y="970.396336343"/>
      <point x="333.650167961" y="877.144971657" type="curve"/>
      <point x="312.518055847" y="1006.44037371" type="line"/>
      <point x="137.658093638" y="1006.44037371" type="line"/>
      <point x="137.658093638" y="0.0" type="line"/>
      <point x="348.409195885" y="0.0" type="line"/>
      <point x="348.409195885" y="522.448299391" type="line" smooth="yes"/>
      <point x="348.409195885" y="589.966355238"/>
      <point x="351.409195885" y="648.98960739"/>
      <point x="360.266691161" y="698.660560571" type="curve"/>
      <point x="393.080149066" y="795.373084191"/>
      <point x="471.574952761" y="867.899065715"/>
      <point x="605.264224228" y="867.899065715" type="curve" smooth="yes"/>
      <point x="746.559626286" y="867.899065715"/>
      <point x="779.746168381" y="775.339439429"/>
      <point x="780.427514172" y="617.735775772" type="curve"/>
      <point x="780.427514172" y="75.6684862482" type="line" smooth="yes"/>
      <point x="780.427514172" y="-104.220186857"/>
      <point x="764.790205753" y="-133.98960739"/>
      <point x="617.0" y="-133.98960739" type="curve" smooth="yes"/>
      <point x="568.790205753" y="-133.98960739" type="line"/>
    </contour>
  </outline>
</glyph>
<glyph name="uni02BC" format="1">
  <advance width="403.147963468"/>
  <unicode hex="02BC"/>
  <outline>
    <contour>
      <point x="107.888673105" y="943.598729792" type="line"/>
      <point x="230.901532647" y="943.598729792" type="line"/>
      <point x="321.733308839" y="1396.51312198" type="line"/>
      <point x="152.554692421" y="1396.51312198" type="line"/>
    </contour>
  </outline>
</glyph>
<glyph name="circumflex" format="1">
  <advance width="706.766953601"/>
  <unicode hex="02C6"/>
  <outline>
    <contour>
      <point x="364.659327105" y="314.193050598" type="move" name="_top"/>
    </contour>
    <contour>
      <point x="68.2825425152" y="1094.07274827" type="line"/>
      <point x="214.867887886" y="1094.07274827" type="line"/>
      <point x="359.735775772" y="1316.75162713" type="line"/>
      <point x="511.362691581" y="1094.07274827" type="line"/>
      <point x="661.036111694" y="1094.07274827" type="line"/>
      <point x="462.0" y="1454.10639303" type="line"/>
      <point x="267.274616838" y="1454.10639303" type="line"/>
    </contour>
  </outline>
</glyph>
<glyph name="caron" format="1">
  <advance width="706.40426202"/>
  <unicode hex="02C7"/>
  <outline>
    <contour>
      <point x="365.362691581" y="314.193050598" type="move" name="_top"/>
    </contour>
    <contour>
      <point x="269.406728952" y="1108.82138358" type="line"/>
      <point x="461.637308419" y="1108.82138358" type="line"/>
      <point x="665.981681713" y="1454.10639303" type="line"/>
      <point x="507.823850514" y="1454.10639303" type="line"/>
      <point x="359.735775772" y="1224.15536427" type="line"/>
      <point x="220.176149486" y="1454.10639303" type="line"/>
      <point x="64.7437014487" y="1454.10639303" type="line"/>
    </contour>
  </outline>
</glyph>
<glyph name="ring" format="1">
  <advance width="578.132112114"/>
  <unicode hex="02DA"/>
  <outline>
    <contour>
      <point x="293.494803695" y="314.193050598" type="move" name="_top"/>
    </contour>
    <contour>
      <point x="293.494803695" y="1176.96388831" type="curve" smooth="yes"/>
      <point x="237.132112114" y="1176.96388831"/>
      <point x="205.945570019" y="1219.00792568"/>
      <point x="205.945570019" y="1275.78773882" type="curve" smooth="yes"/>
      <point x="205.945570019" y="1327.93024354"/>
      <point x="244.637308419" y="1375.88620617"/>
      <point x="293.494803695" y="1375.88620617" type="curve" smooth="yes"/>
      <point x="345.945570019" y="1375.88620617"/>
      <point x="380.769420533" y="1328.29293512"/>
      <point x="380.769420533" y="1275.78773882" type="curve" smooth="yes"/>
      <point x="380.769420533" y="1221.91985093"/>
      <point x="343.714990552" y="1176.96388831"/>
    </contour>
    <contour>
      <point x="294.769420533" y="1094.44583246" type="curve" smooth="yes"/>
      <point x="402.100934285" y="1094.44583246"/>
      <point x="483.562093219" y="1171.51312198"/>
      <point x="483.562093219" y="1275.78773882" type="curve" smooth="yes"/>
      <point x="483.562093219" y="1377.78773882"/>
      <point x="404.419588495" y="1462.18407516"/>
      <point x="293.494803695" y="1462.18407516" type="curve" smooth="yes"/>
      <point x="184.844635734" y="1462.18407516"/>
      <point x="103.746168381" y="1381.3369725"/>
      <point x="103.746168381" y="1275.78773882" type="curve" smooth="yes"/>
      <point x="103.746168381" y="1171.51312198"/>
      <point x="184.888673105" y="1094.44583246"/>
    </contour>
  </outline>
</glyph>
<glyph name="hungarumlaut" format="1">
  <advance width="797.852036532"/>
  <unicode hex="02DD"/>
  <outline>
    <contour>
      <point x="431.181083351" y="314.193050598" type="move" name="_top"/>
    </contour>
    <contour>
      <point x="119.176149486" y="1098.89659878" type="line"/>
      <point x="233.178616418" y="1098.89659878" type="line"/>
      <point x="500.061830779" y="1420.41465463" type="line"/>
      <point x="322.497270628" y="1420.41465463" type="line"/>
    </contour>
    <contour>
      <point x="359.080149066" y="1098.89659878" type="line"/>
      <point x="472.675887046" y="1098.89659878" type="line"/>
      <point x="743.504671426" y="1420.41465463" type="line"/>
      <point x="565.80799916" y="1420.41465463" type="line"/>
    </contour>
  </outline>
</glyph>
<glyph name="dblgravecmb" format="1">
  <advance width="794.621457065"/>
  <unicode hex="030F"/>
  <outline>
    <contour>
      <point x="373.924784799" y="314.193050598" type="move" name="_top"/>
    </contour>
    <contour>
      <point x="293.790205753" y="1116.14003779" type="line"/>
      <point x="421.497270628" y="1116.14003779" type="line"/>
      <point x="232.870354818" y="1429.21771992" type="line"/>
      <point x="36.710056687" y="1429.21771992" type="line"/>
    </contour>
    <contour>
      <point x="574.948036952" y="1116.14003779" type="line"/>
      <point x="711.139512912" y="1116.14003779" type="line"/>
      <point x="515.214728113" y="1429.21771992" type="line"/>
      <point x="322.362691581" y="1429.21771992" type="line"/>
    </contour>
  </outline>
</glyph>
<glyph name="commaaccentcomb" format="1">
  <advance width="422.445307579"/>
  <unicode hex="0326"/>
  <outline>
    <contour>
      <point x="199.74986878" y="0.0" type="move" name="_bottom"/>
    </contour>
    <contour>
      <point x="62.3082615998" y="-606.01039261" type="line"/>
      <point x="196.21226118" y="-606.01039261" type="line"/>
      <point x="337.191475961" y="-140.075215201" type="line"/>
      <point x="155.023252152" y="-140.075215201" type="line"/>
    </contour>
  </outline>
</glyph>
<glyph name="Beta" format="1">
  <advance width="1186.84463573"/>
  <unicode hex="0392"/>
  <outline>
    <contour>
      <point x="128.196934705" y="0.0" type="line"/>
      <point x="627.233046399" y="0.0" type="line" smooth="yes"/>
      <point x="939.385943733" y="0.0"/>
      <point x="1112.80553223" y="139.373084191"/>
      <point x="1112.80553223" y="387.582878438" type="curve" smooth="yes"/>
      <point x="1112.80553223" y="547.176149486"/>
      <point x="1022.71745748" y="672.01039261"/>
      <point x="854.862429141" y="714.044037371" type="curve"/>
      <point x="1035.18900903" y="780.769420533"/>
      <point x="1063.8495696" y="934.932710477"/>
      <point x="1063.8495696" y="1007.96635524" type="curve" smooth="yes"/>
      <point x="1063.8495696" y="1251.45076632"/>
      <point x="886.002466933" y="1344.23057947"/>
      <point x="549.948036952" y="1344.23057947" type="curve" smooth="yes"/>
      <point x="128.196934705" y="1344.23057947" type="line"/>
    </contour>
    <contour>
      <point x="343.543774932" y="171.883214361" type="line"/>
      <point x="343.543774932" y="623.437906781" type="line"/>
      <point x="563.178616418" y="623.437906781" type="line" smooth="yes"/>
      <point x="784.505196305" y="623.437906781"/>
      <point x="893.634841486" y="568.339439429"/>
      <point x="893.634841486" y="399.891140038" type="curve" smooth="yes"/>
      <point x="893.634841486" y="237.815924837"/>
      <point x="791.427514172" y="171.883214361"/>
      <point x="587.023252152" y="171.883214361" type="curve" smooth="yes"/>
    </contour>
    <contour>
      <point x="343.543774932" y="779.29786899" type="line"/>
      <point x="343.543774932" y="1170.11678564" type="line"/>
      <point x="530.28747638" y="1170.11678564" type="line" smooth="yes"/>
      <point x="739.230579467" y="1170.11678564"/>
      <point x="847.899065715" y="1132.51312198"/>
      <point x="847.899065715" y="974.481944153" type="curve" smooth="yes"/>
      <point x="847.899065715" y="823.484411085"/>
      <point x="753.505196305" y="779.29786899"/>
      <point x="589.440373714" y="779.29786899" type="curve" smooth="yes"/>
    </contour>
  </outline>
</glyph>
<glyph name="Lambda" format="1">
  <advance width="1242.24149696"/>
  <unicode hex="039B"/>
  <outline>
    <contour>
      <point x="42.906991392" y="0.0" type="line"/>
      <point x="220.347365106" y="0.0" type="line"/>
      <point x="625.862954021" y="1172.52598152" type="line"/>
      <point x="1036.65315977" y="0.0" type="line"/>
      <point x="1209.09353349" y="0.0" type="line"/>
      <point x="711.269682973" y="1365.22018686" type="line"/>
      <point x="539.730841906" y="1365.22018686" type="line"/>
    </contour>
  </outline>
</glyph>
<glyph name="Mu" format="1">
  <advance width="1615.26422423"/>
  <unicode hex="039C"/>
  <outline>
    <contour>
      <point x="143.077682133" y="0.0" type="line"/>
      <point x="332.554167541" y="0.0" type="line"/>
      <point x="332.554167541" y="734.663552383" type="line"/>
      <point x="324.004933865" y="1059.71798236" type="line"/>
      <point x="349.157831199" y="991.995066135" type="line"/>
      <point x="726.054429981" y="85.8134579047" type="line"/>
      <point x="909.409195885" y="85.8134579047" type="line"/>
      <point x="1285.02078522" y="987.632374554" type="line"/>
      <point x="1309.81099097" y="1054.67394499" type="line"/>
      <point x="1303.17368255" y="738.300860802" type="line"/>
      <point x="1303.17368255" y="0.0" type="line"/>
      <point x="1496.18900903" y="0.0" type="line"/>
      <point x="1496.18900903" y="1344.23057947" type="line"/>
      <point x="1253.59080412" y="1344.23057947" type="line"/>
      <point x="820.111326895" y="336.577419693" type="line"/>
      <point x="389.906466513" y="1344.23057947" type="line"/>
      <point x="143.077682133" y="1344.23057947" type="line"/>
    </contour>
  </outline>
</glyph>
<glyph name="Nu" format="1">
  <advance width="1373.05442998"/>
  <unicode hex="039D"/>
  <outline>
    <contour>
      <point x="133.505196305" y="0.0" type="line"/>
      <point x="344.577419693" y="0.0" type="line"/>
      <point x="344.577419693" y="608.158880957" type="line" smooth="yes"/>
      <point x="344.577419693" y="675.363741339"/>
      <point x="329.323588075" y="1041.23357128"/>
      <point x="329.323588075" y="1041.23357128" type="curve"/>
      <point x="472.399328155" y="840.481419274"/>
      <point x="880.678353979" y="199.158880957"/>
      <point x="1025.34736511" y="0.0" type="curve"/>
      <point x="1260.33151375" y="0.0" type="line"/>
      <point x="1260.33151375" y="1344.23057947" type="line"/>
      <point x="1048.57794457" y="1344.23057947" type="line"/>
      <point x="1048.57794457" y="670.989082511" type="line" smooth="yes"/>
      <point x="1048.57794457" y="642.913867311"/>
      <point x="1059.88620617" y="333.219661978"/>
      <point x="1060.24889775" y="296.688746588" type="curve"/>
      <point x="916.217195045" y="497.122244384"/>
      <point x="507.57547764" y="1145.39035272"/>
      <point x="362.269158094" y="1344.23057947" type="curve"/>
      <point x="133.505196305" y="1344.23057947" type="line"/>
    </contour>
  </outline>
</glyph>
<glyph name="Pi" format="1">
  <advance width="1315.40426202"/>
  <unicode hex="03A0"/>
  <outline>
    <contour>
      <point x="131.054429981" y="0.0" type="line"/>
      <point x="299.769420533" y="0.0" type="line"/>
      <point x="299.769420533" y="1219.14250472" type="line"/>
      <point x="1023.30579467" y="1219.14250472" type="line"/>
      <point x="1023.30579467" y="0.0" type="line"/>
      <point x="1191.3834768" y="0.0" type="line"/>
      <point x="1191.3834768" y="1365.22018686" type="line"/>
      <point x="131.054429981" y="1365.22018686" type="line"/>
    </contour>
  </outline>
</glyph>
<glyph name="Tau" format="1">
  <advance width="1080.80605711"/>
  <unicode hex="03A4"/>
  <outline>
    <contour>
      <point x="454.557159353" y="0.0" type="line"/>
      <point x="679.463625866" y="0.0" type="line"/>
      <point x="679.463625866" y="1166.93024354" type="line"/>
      <point x="1069.4948037" y="1166.93024354" type="line"/>
      <point x="1069.4948037" y="1344.23057947" type="line"/>
      <point x="64.6140562671" y="1344.23057947" type="line"/>
      <point x="64.6140562671" y="1166.93024354" type="line"/>
      <point x="454.557159353" y="1166.93024354" type="line"/>
    </contour>
  </outline>
</glyph>
<glyph name="Phi" format="1">
  <advance width="1509.47947722"/>
  <unicode hex="03A6"/>
  <outline>
    <contour>
      <point x="671.943103086" y="0.0" type="line"/>
      <point x="838.976747848" y="0.0" type="line"/>
      <point x="838.976747848" y="154.637308419" type="line"/>
      <point x="1218.66848625" y="182.769420533"/>
      <point x="1417.58041151" y="410.406728952"/>
      <point x="1417.58041151" y="704.406728952" type="curve" smooth="yes"/>
      <point x="1417.58041151" y="1004.45076632"/>
      <point x="1205.58041151" y="1212.76942053"/>
      <point x="838.976747848" y="1239.85749528" type="curve"/>
      <point x="838.976747848" y="1365.22018686" type="line"/>
      <point x="671.943103086" y="1365.22018686" type="line"/>
      <point x="671.943103086" y="1239.85749528" type="line"/>
      <point x="306.888673105" y="1211.76942053"/>
      <point x="97.3834768003" y="1002.40672895"/>
      <point x="97.3834768003" y="704.406728952" type="curve" smooth="yes"/>
      <point x="97.3834768003" y="410.362691581"/>
      <point x="296.658093638" y="184.406728952"/>
      <point x="671.943103086" y="154.637308419" type="curve"/>
    </contour>
    <contour>
      <point x="671.943103086" y="304.891140038" type="line"/>
      <point x="396.790205753" y="333.29786899"/>
      <point x="276.098467353" y="500.033644762"/>
      <point x="276.098467353" y="704.406728952" type="curve" smooth="yes"/>
      <point x="276.098467353" y="917.142504724"/>
      <point x="409.152897334" y="1063.55962629"/>
      <point x="671.943103086" y="1089.60366366" type="curve"/>
    </contour>
    <contour>
      <point x="838.976747848" y="304.891140038" type="curve"/>
      <point x="838.976747848" y="1089.60366366" type="line"/>
      <point x="1107.12964518" y="1064.55962629"/>
      <point x="1238.50272937" y="915.417121562"/>
      <point x="1238.50272937" y="704.406728952" type="curve" smooth="yes"/>
      <point x="1238.50272937" y="497.98960739"/>
      <point x="1115.36022465" y="332.29786899"/>
    </contour>
  </outline>
</glyph>
<glyph name="rho" format="1">
  <advance width="1141.78773882"/>
  <unicode hex="03C1"/>
  <outline>
    <contour>
      <point x="130.0" y="-421.064822591" type="line"/>
      <point x="340.025719085" y="-409.658093638" type="line"/>
      <point x="340.025719085" y="-36.0311778291" type="line" smooth="yes"/>
      <point x="340.025719085" y="9.81345790468"/>
      <point x="338.344373294" y="62.6036636574"/>
      <point x="335.025719085" y="118.437906781" type="curve"/>
      <point x="401.388410666" y="35.9663552383"/>
      <point x="513.233046399" y="-19.5932710477"/>
      <point x="637.792672685" y="-19.5932710477" type="curve" smooth="yes"/>
      <point x="897.792672685" y="-19.5932710477"/>
      <point x="1065.53884107" y="201.264224228"/>
      <point x="1065.53884107" y="502.803065295" type="curve" smooth="yes"/>
      <point x="1065.53884107" y="802.813457905"/>
      <point x="911.572485828" y="1029.52844846"/>
      <point x="646.365158514" y="1029.52844846" type="curve" smooth="yes"/>
      <point x="513.266691161" y="1029.52844846"/>
      <point x="390.805532228" y="963.891140038"/>
      <point x="334.036111694" y="868.398803275" type="curve"/>
      <point x="314.90399958" y="1006.80306529" type="line"/>
      <point x="130.0" y="1006.80306529" type="line"/>
    </contour>
    <contour>
      <point x="600.945570019" y="141.080149066" type="curve" smooth="yes"/>
      <point x="417.113793827" y="141.080149066"/>
      <point x="338.981681713" y="266.484411085"/>
      <point x="338.981681713" y="522.670953181" type="curve"/>
      <point x="340.025719085" y="750.220186857"/>
      <point x="424.618990132" y="868.217719924"/>
      <point x="599.494803695" y="868.217719924" type="curve" smooth="yes"/>
      <point x="764.09600042" y="868.217719924"/>
      <point x="856.194467772" y="739.626915809"/>
      <point x="856.194467772" y="507.033644762" type="curve" smooth="yes"/>
      <point x="856.194467772" y="275.067289523"/>
      <point x="763.272149906" y="141.080149066"/>
    </contour>
  </outline>
</glyph>
<glyph name="uni0408" format="1">
  <advance width="598.381009868"/>
  <unicode hex="0408"/>
  <outline>
    <contour>
      <point x="107.78773882" y="-242.971289104" type="curve" smooth="yes"/>
      <point x="315.763961789" y="-241.378018056"/>
      <point x="413.854503464" y="-145.670953181"/>
      <point x="406.525456645" y="56.6887465883" type="curve" smooth="yes"/>
      <point x="509.450766324" y="56.6887465883"/>
      <point x="504.033644762" y="914.366050808"/>
      <point x="504.033644762" y="999.765378963" type="curve"/>
      <point x="307.806057107" y="1344.23057947" type="line"/>
      <point x="279.445832459" y="515.714098257" type="line" smooth="yes"/>
      <point x="279.445832459" y="415.556267059"/>
      <point x="261.049496116" y="14.7828049549"/>
      <point x="171.111851774" y="14.7828049549" type="curve" smooth="yes"/>
      <point x="155.440898593" y="-26.0049338652"/>
      <point x="128.780338022" y="-61.9247847995"/>
      <point x="41.3448981734" y="-57.1553642662" type="curve"/>
      <point x="46.7620197355" y="-57.1553642662"/>
      <point x="27.2152529918" y="-200.875288684"/>
      <point x="36.7748792778" y="-202.149905522" type="curve"/>
      <point x="57.8965987823" y="-206.919326055"/>
      <point x="87.347365106" y="-242.971289104"/>
    </contour>
  </outline>
</glyph>
<glyph name="uni0413" format="1">
  <advance width="1151.07715725"/>
  <unicode hex="0413"/>
  <outline>
    <contour>
      <point x="576.038578627" y="429.864528658" type="move" name="top"/>
    </contour>
    <contour>
      <point x="138.041570439" y="0.0" type="line"/>
      <point x="348.880747428" y="0.0" type="line"/>
      <point x="348.880747428" y="1170.91985093" type="line"/>
      <point x="969.865420953" y="1170.91985093" type="line"/>
      <point x="986.40426202" y="1340.73577577" type="line"/>
      <point x="138.041570439" y="1340.73577577" type="line"/>
    </contour>
  </outline>
</glyph>
<glyph name="uni041F" format="1">
  <advance width="1328.34736511"/>
  <unicode hex="041F"/>
  <outline>
    <contour>
      <point x="138.041570439" y="0.0" type="line"/>
      <point x="348.880747428" y="0.0" type="line"/>
      <point x="348.880747428" y="1176.37061726" type="line"/>
      <point x="989.039103506" y="1176.37061726" type="line"/>
      <point x="989.039103506" y="0.0" type="line"/>
      <point x="1200.55962629" y="0.0" type="line"/>
      <point x="1200.55962629" y="1340.73577577" type="line"/>
      <point x="138.041570439" y="1340.73577577" type="line"/>
    </contour>
  </outline>
</glyph>
<glyph name="uni0424" format="1">
  <advance width="1579.79267269"/>
  <unicode hex="0424"/>
  <outline>
    <contour>
      <point x="694.559626286" y="0.0" type="line"/>
      <point x="885.751102246" y="0.0" type="line"/>
      <point x="885.751102246" y="129.067289523" type="line"/>
      <point x="1260.63977535" y="148.033644762"/>
      <point x="1509.57495276" y="354.562093219"/>
      <point x="1509.57495276" y="683.626915809" type="curve" smooth="yes"/>
      <point x="1509.57495276" y="1010.19693471"/>
      <point x="1258.87035482" y="1212.1865421"/>
      <point x="885.751102246" y="1230.47155154" type="curve"/>
      <point x="885.751102246" y="1348.70213101" type="line"/>
      <point x="694.559626286" y="1348.70213101" type="line"/>
      <point x="693.515588915" y="1229.51558891" type="line"/>
      <point x="315.033644762" y="1206.04403737"/>
      <point x="78.3834768003" y="997.186542095"/>
      <point x="78.3834768003" y="683.626915809" type="curve" smooth="yes"/>
      <point x="78.3834768003" y="365.847102666"/>
      <point x="316.803065295" y="153.176149486"/>
      <point x="693.515588915" y="129.704597942" type="curve"/>
    </contour>
    <contour>
      <point x="693.515588915" y="305.740709637" type="line"/>
      <point x="417.650167961" y="328.256298551"/>
      <point x="286.497270628" y="479.080149066"/>
      <point x="286.497270628" y="682.220186857" type="curve" smooth="yes"/>
      <point x="286.497270628" y="882.228112534"/>
      <point x="419.056896914" y="1031.60119672"/>
      <point x="693.515588915" y="1054.11678564" type="curve"/>
    </contour>
    <contour>
      <point x="885.751102246" y="305.103401218" type="curve"/>
      <point x="885.751102246" y="1054.75409406" type="line"/>
      <point x="1171.03364476" y="1034.19446777"/>
      <point x="1301.82385051" y="882.184075163"/>
      <point x="1301.82385051" y="682.220186857" type="curve" smooth="yes"/>
      <point x="1301.82385051" y="478.398803275"/>
      <point x="1169.26422423" y="325.663027504"/>
    </contour>
  </outline>
</glyph>
<glyph name="uni0428" format="1">
  <advance width="1565.69667227"/>
  <unicode hex="0428"/>
  <outline>
    <contour>
      <point x="124.658093638" y="0.0" type="line"/>
      <point x="1451.92971866" y="0.0" type="line"/>
      <point x="1451.92971866" y="1340.73577577" type="line"/>
      <point x="1247.10093429" y="1340.73577577" type="line"/>
      <point x="1247.10093429" y="165.958429561" type="line"/>
      <point x="896.445307579" y="165.958429561" type="line"/>
      <point x="896.445307579" y="1340.73577577" type="line"/>
      <point x="692.979214781" y="1340.73577577" type="line"/>
      <point x="692.979214781" y="165.958429561" type="line"/>
      <point x="328.805532228" y="165.958429561" type="line"/>
      <point x="328.805532228" y="1340.73577577" type="line"/>
      <point x="124.658093638" y="1340.73577577" type="line"/>
    </contour>
  </outline>
</glyph>
<glyph name="uni0429" format="1">
  <advance width="1626.02571908"/>
  <unicode hex="0429"/>
  <outline>
    <contour>
      <point x="1388.21226118" y="-288.341906362" type="line"/>
      <point x="1578.01779341" y="-288.341906362" type="line"/>
      <point x="1578.01779341" y="127.295402058" type="line"/>
      <point x="1465.31319547" y="127.295402058" type="line"/>
      <point x="1465.31319547" y="1340.73577577" type="line"/>
      <point x="1260.84710267" y="1340.73577577" type="line"/>
      <point x="1260.84710267" y="165.958429561" type="line"/>
      <point x="909.82878438" y="165.958429561" type="line"/>
      <point x="909.82878438" y="1340.73577577" type="line"/>
      <point x="706.362691581" y="1340.73577577" type="line"/>
      <point x="706.362691581" y="165.958429561" type="line"/>
      <point x="342.189009028" y="165.958429561" type="line"/>
      <point x="342.189009028" y="1340.73577577" type="line"/>
      <point x="138.041570439" y="1340.73577577" type="line"/>
      <point x="138.041570439" y="0.0" type="line"/>
      <point x="1387.8495696" y="0.0" type="line"/>
    </contour>
  </outline>
</glyph>
<glyph name="uni042A" format="1">
  <advance width="1380.48194415"/>
  <unicode hex="042A"/>
  <outline>
    <contour>
      <point x="399.50026244" y="7.39633634264" type="line"/>
      <point x="810.966355238" y="7.39633634264" type="line" smooth="yes"/>
      <point x="1143.59327105" y="7.39633634264"/>
      <point x="1312.36269158" y="141.111326895"/>
      <point x="1312.36269158" y="417.134579047" type="curve" smooth="yes"/>
      <point x="1312.36269158" y="694.52052278"/>
      <point x="1104.99753307" y="813.432448037"/>
      <point x="805.152897334" y="813.432448037" type="curve" smooth="yes"/>
      <point x="598.590804115" y="813.432448037" type="line"/>
      <point x="598.590804115" y="1336.51558891" type="line"/>
      <point x="86.2152529918" y="1336.51558891" type="line"/>
      <point x="86.2152529918" y="1167.38100987" type="line"/>
      <point x="399.50026244" y="1167.38100987" type="line"/>
    </contour>
    <contour>
      <point x="598.590804115" y="178.21226118" type="line"/>
      <point x="598.590804115" y="645.660560571" type="line"/>
      <point x="824.152897334" y="645.660560571" type="line" smooth="yes"/>
      <point x="1031.19446777" y="645.660560571"/>
      <point x="1118.94310309" y="555.155364266"/>
      <point x="1118.94310309" y="415.551700609" type="curve" smooth="yes"/>
      <point x="1118.94310309" y="266.080149066"/>
      <point x="1047.32657989" y="178.21226118"/>
      <point x="829.966355238" y="178.21226118" type="curve" smooth="yes"/>
    </contour>
  </outline>
</glyph>
<glyph name="uni0432" format="1">
  <advance width="1012.32657989"/>
  <unicode hex="0432"/>
  <outline>
    <contour>
      <point x="122.458692001" y="0.0" type="line"/>
      <point x="587.196934705" y="0.0" type="line" smooth="yes"/>
      <point x="829.513121982" y="0.0"/>
      <point x="952.196934705" y="118.71252362"/>
      <point x="952.196934705" y="293.264224228" type="curve"/>
      <point x="951.515588915" y="384.440373714"/>
      <point x="898.427514172" y="496.637308419"/>
      <point x="770.518055847" y="532.637308419" type="curve"/>
      <point x="879.098467353" y="572.955962629"/>
      <point x="922.329046819" y="646.769420533"/>
      <point x="922.329046819" y="741.329046819" type="curve" smooth="yes"/>
      <point x="922.329046819" y="901.968822171"/>
      <point x="803.733308839" y="1007.07768213"/>
      <point x="579.075215201" y="1007.07768213" type="curve" smooth="yes"/>
      <point x="122.458692001" y="1007.07768213" type="line"/>
    </contour>
    <contour>
      <point x="329.3082616" y="152.585345371" type="line"/>
      <point x="329.3082616" y="444.471551543" type="line"/>
      <point x="596.152897334" y="444.471551543" type="line" smooth="yes"/>
      <point x="722.842168801" y="444.471551543"/>
      <point x="756.689271468" y="370.406728952"/>
      <point x="757.051963048" y="301.440373714" type="curve"/>
      <point x="757.051963048" y="215.727850094"/>
      <point x="716.513121982" y="152.585345371"/>
      <point x="587.867887886" y="152.585345371" type="curve" smooth="yes"/>
    </contour>
    <contour>
      <point x="329.3082616" y="591.253831619" type="line"/>
      <point x="329.3082616" y="843.634841486" type="line"/>
      <point x="582.735775772" y="843.634841486" type="line" smooth="yes"/>
      <point x="686.041570439" y="843.634841486"/>
      <point x="726.821383582" y="787.668486248"/>
      <point x="726.821383582" y="718.01039261" type="curve" smooth="yes"/>
      <point x="726.821383582" y="656.450766324"/>
      <point x="691.689271468" y="591.253831619"/>
      <point x="589.427514172" y="591.253831619" type="curve" smooth="yes"/>
    </contour>
  </outline>
</glyph>
<glyph name="uni0433" format="1">
  <advance width="758.935702288"/>
  <unicode hex="0433"/>
  <outline>
    <contour>
      <point x="379.808524039" y="314.193050598" type="move" name="top"/>
    </contour>
    <contour>
      <point x="122.458692001" y="0.0" type="line"/>
      <point x="329.3082616" y="0.0" type="line"/>
      <point x="329.3082616" y="850.228112534" type="line"/>
      <point x="711.036636574" y="850.228112534" type="line"/>
      <point x="717.091066555" y="1007.07768213" type="line"/>
      <point x="122.458692001" y="1007.07768213" type="line"/>
    </contour>
  </outline>
</glyph>
<glyph name="uni0434" format="1">
  <advance width="1094.59080412"/>
  <unicode hex="0434"/>
  <outline>
    <contour>
      <point x="37.9223178669" y="-287.660560571" type="line"/>
      <point x="215.541307999" y="-287.660560571" type="line"/>
      <point x="219.080149066" y="0.0" type="line"/>
      <point x="870.919850934" y="0.0" type="line"/>
      <point x="877.634841486" y="-287.660560571" type="line"/>
      <point x="1055.71499055" y="-287.660560571" type="line"/>
      <point x="1055.71499055" y="154.805532228" type="line"/>
      <point x="963.966355238" y="154.805532228" type="line"/>
      <point x="963.966355238" y="1007.07768213" type="line"/>
      <point x="290.995066135" y="1007.07768213" type="line"/>
      <point x="244.481944153" y="587.727325215" type="line"/>
      <point x="231.966355238" y="407.240447197"/>
      <point x="185.71252362" y="233.357232836"/>
      <point x="120.976747848" y="154.805532228" type="curve"/>
      <point x="37.9223178669" y="154.805532228" type="line"/>
    </contour>
    <contour>
      <point x="348.178616418" y="156.21226118" type="line"/>
      <point x="380.365158514" y="208.543774932"/>
      <point x="428.189009028" y="354.577419693"/>
      <point x="448.880747428" y="557.776821331" type="curve"/>
      <point x="450.28747638" y="571.481419274"/>
      <point x="481.922317867" y="827.401795087"/>
      <point x="482.285009448" y="846.007925677" type="curve"/>
      <point x="757.842168801" y="846.007925677" type="line"/>
      <point x="757.842168801" y="156.21226118" type="line"/>
    </contour>
  </outline>
</glyph>
<glyph name="uni0436" format="1">
  <advance width="1401.88867311"/>
  <unicode hex="0436"/>
  <outline>
    <contour>
      <point x="25.6580936385" y="0.0" type="line"/>
      <point x="253.849569599" y="0.0" type="line"/>
      <point x="609.207327315" y="438.899065715" type="line"/>
      <point x="609.207327315" y="0.0" type="line"/>
      <point x="805.155364266" y="0.0" type="line"/>
      <point x="805.155364266" y="438.899065715" type="line"/>
      <point x="1160.78773882" y="0.0" type="line"/>
      <point x="1389.34190636" y="0.0" type="line"/>
      <point x="961.696672265" y="511.362691581" type="line"/>
      <point x="1376.80306529" y="1007.07768213" type="line"/>
      <point x="1146.94063615" y="1007.07768213" type="line"/>
      <point x="805.155364266" y="574.958429561" type="line"/>
      <point x="805.155364266" y="1007.07768213" type="line"/>
      <point x="609.207327315" y="1007.07768213" type="line"/>
      <point x="609.207327315" y="574.958429561" type="line"/>
      <point x="268.015326475" y="1007.07768213" type="line"/>
      <point x="38.196934705" y="1007.07768213" type="line"/>
      <point x="452.940636154" y="511.362691581" type="line"/>
    </contour>
  </outline>
</glyph>
<glyph name="uni043B" format="1">
  <advance width="1104.63484149"/>
  <unicode hex="043B"/>
  <outline>
    <contour>
      <point x="43.5804115054" y="-18.582878438" type="curve" smooth="yes"/>
      <point x="303.963888306" y="-15.0440373714"/>
      <point x="393.725383162" y="132.557159353"/>
      <point x="416.668486248" y="409.710056687" type="curve" smooth="yes"/>
      <point x="449.808524039" y="842.228112534" type="line"/>
      <point x="783.810990972" y="842.228112534" type="line"/>
      <point x="783.810990972" y="0.362691580936" type="line"/>
      <point x="989.979214781" y="0.362691580936" type="line"/>
      <point x="989.979214781" y="1007.07768213" type="line"/>
      <point x="257.111851774" y="1007.07768213" type="line"/>
      <point x="216.324112954" y="436.072748268" type="line" smooth="yes"/>
      <point x="193.381009868" y="202.111326895"/>
      <point x="169.360224648" y="153.486878018"/>
      <point x="31.3498320386" y="147.859962209" type="curve"/>
      <point x="31.3498320386" y="147.859962209"/>
      <point x="39.3602246483" y="-19.2642242284"/>
    </contour>
  </outline>
</glyph>
<glyph name="uni043C" format="1">
  <advance width="1156.84463573"/>
  <unicode hex="043C"/>
  <outline>
    <contour>
      <point x="122.458692001" y="0.0" type="line"/>
      <point x="310.847102666" y="0.0" type="line"/>
      <point x="310.847102666" y="671.292935125" type="line"/>
      <point x="535.922317867" y="254.191475961" type="line"/>
      <point x="637.505196305" y="254.191475961" type="line"/>
      <point x="856.614056267" y="671.974280915" type="line"/>
      <point x="856.614056267" y="0.0" type="line"/>
      <point x="1043.59573798" y="0.0" type="line"/>
      <point x="1043.59573798" y="1007.07768213" type="line"/>
      <point x="861.152897334" y="1007.07768213" type="line"/>
      <point x="582.867887886" y="486.240447197" type="line"/>
      <point x="305.901532647" y="1007.07768213" type="line"/>
      <point x="122.458692001" y="1007.07768213" type="line"/>
    </contour>
  </outline>
</glyph>
<glyph name="uni043D" format="1">
  <advance width="1100.5339072"/>
  <unicode hex="043D"/>
  <outline>
    <contour>
      <point x="122.458692001" y="0.0" type="line"/>
      <point x="329.3082616" y="0.0" type="line"/>
      <point x="329.3082616" y="460.471551543" type="line"/>
      <point x="780.754094058" y="460.471551543" type="line"/>
      <point x="780.754094058" y="0.0" type="line"/>
      <point x="986.922317867" y="0.0" type="line"/>
      <point x="986.922317867" y="1007.07768213" type="line"/>
      <point x="780.754094058" y="1007.07768213" type="line"/>
      <point x="780.754094058" y="616.144971657" type="line"/>
      <point x="329.3082616" y="616.144971657" type="line"/>
      <point x="329.3082616" y="1007.07768213" type="line"/>
      <point x="122.458692001" y="1007.07768213" type="line"/>
    </contour>
  </outline>
</glyph>
<glyph name="uni043F" format="1">
  <advance width="1061.73577577"/>
  <unicode hex="043F"/>
  <outline>
    <contour>
      <point x="115.481944153" y="0.0" type="line"/>
      <point x="309.541307999" y="0.0" type="line"/>
      <point x="309.541307999" y="846.810990972" type="line"/>
      <point x="760.997533067" y="846.810990972" type="line"/>
      <point x="760.997533067" y="0.0" type="line"/>
      <point x="955.419588495" y="0.0" type="line"/>
      <point x="955.419588495" y="1007.07768213" type="line"/>
      <point x="115.481944153" y="1007.07768213" type="line"/>
    </contour>
  </outline>
</glyph>
<glyph name="uni0442" format="1">
  <advance width="839.445832459"/>
  <unicode hex="0442"/>
  <outline>
    <contour>
      <point x="323.194467772" y="0.0" type="line"/>
      <point x="526.505196305" y="0.0" type="line"/>
      <point x="526.505196305" y="854.525981524" type="line"/>
      <point x="803.6917384" y="854.525981524" type="line"/>
      <point x="803.6917384" y="1007.07768213" type="line"/>
      <point x="42.5131219819" y="1007.07768213" type="line"/>
      <point x="42.5131219819" y="854.525981524" type="line"/>
      <point x="323.194467772" y="854.525981524" type="line"/>
    </contour>
  </outline>
</glyph>
<glyph name="uni0444" format="1">
  <advance width="1326.58041151"/>
  <unicode hex="0444"/>
  <outline>
    <contour>
      <point x="560.075215201" y="-225.862954021" type="line"/>
      <point x="757.59573798" y="-225.862954021" type="line"/>
      <point x="757.59573798" y="35.4819441528" type="line"/>
      <point x="793.518055847" y="25.1528973336"/>
      <point x="855.803065295" y="21.6036636574"/>
      <point x="882.966355238" y="21.6036636574" type="curve" smooth="yes"/>
      <point x="1108.03364476" y="21.6036636574"/>
      <point x="1251.17614949" y="260.528448457"/>
      <point x="1251.17614949" y="509.044037371" type="curve" smooth="yes"/>
      <point x="1251.17614949" y="759.559626286"/>
      <point x="1103.63730842" y="989.474018476"/>
      <point x="875.614056267" y="989.474018476" type="curve" smooth="yes"/>
      <point x="849.132112114" y="989.474018476"/>
      <point x="790.341906362" y="982.375551123"/>
      <point x="757.59573798" y="972.409195885" type="curve"/>
      <point x="757.59573798" y="1176.0752152" type="line"/>
      <point x="560.075215201" y="1176.0752152" type="line"/>
      <point x="560.075215201" y="972.409195885" type="line"/>
      <point x="525.559626286" y="982.738242704"/>
      <point x="467.3082616" y="989.474018476"/>
      <point x="441.419588495" y="989.474018476" type="curve" smooth="yes"/>
      <point x="213.077682133" y="989.474018476"/>
      <point x="66.4948036952" y="759.922317867"/>
      <point x="66.4948036952" y="509.406728952" type="curve" smooth="yes"/>
      <point x="66.4948036952" y="260.935177409"/>
      <point x="208.274616838" y="21.6036636574"/>
      <point x="433.385943733" y="21.6036636574" type="curve" smooth="yes"/>
      <point x="459.867887886" y="21.6036636574"/>
      <point x="525.559626286" y="25.1528973336"/>
      <point x="560.075215201" y="35.4819441528" type="curve"/>
    </contour>
    <contour>
      <point x="438.023252152" y="173.375551123" type="curve" smooth="yes"/>
      <point x="320.365158514" y="173.375551123"/>
      <point x="256.21226118" y="338.253831619"/>
      <point x="256.21226118" y="505.637308419" type="curve" smooth="yes"/>
      <point x="256.21226118" y="673.658093638"/>
      <point x="324.805532228" y="837.339439429"/>
      <point x="442.463625866" y="837.339439429" type="curve" smooth="yes"/>
      <point x="467.3082616" y="837.339439429"/>
      <point x="527.505196305" y="835.064822591"/>
      <point x="560.075215201" y="822.230579467" type="curve"/>
      <point x="560.075215201" y="187.847102666" type="line"/>
      <point x="525.285009448" y="175.924784799"/>
      <point x="463.593271048" y="173.375551123"/>
    </contour>
    <contour>
      <point x="878.285009448" y="173.375551123" type="curve" smooth="yes"/>
      <point x="853.440373714" y="173.375551123"/>
      <point x="790.6165232" y="175.968822171"/>
      <point x="757.59573798" y="189.484411085" type="curve"/>
      <point x="757.59573798" y="821.0" type="line"/>
      <point x="792.253831619" y="835.196934705"/>
      <point x="848.406728952" y="837.70213101"/>
      <point x="874.888673105" y="837.70213101" type="curve" smooth="yes"/>
      <point x="991.228112534" y="837.70213101"/>
      <point x="1061.09600042" y="674.339439429"/>
      <point x="1061.09600042" y="506.0" type="curve" smooth="yes"/>
      <point x="1061.09600042" y="339.29786899"/>
      <point x="995.668486248" y="173.375551123"/>
    </contour>
  </outline>
</glyph>
<glyph name="uni0446" format="1">
  <advance width="1078.43790678"/>
  <unicode hex="0446"/>
  <outline>
    <contour>
      <point x="859.658093638" y="-287.660560571" type="line"/>
      <point x="1048.4948037" y="-287.660560571" type="line"/>
      <point x="1048.4948037" y="117.823850514" type="line"/>
      <point x="945.867887886" y="117.823850514" type="line"/>
      <point x="945.867887886" y="1007.07768213" type="line"/>
      <point x="740.018318287" y="1007.07768213" type="line"/>
      <point x="740.018318287" y="154.442840647" type="line"/>
      <point x="330.714990552" y="154.442840647" type="line"/>
      <point x="330.714990552" y="1007.07768213" type="line"/>
      <point x="124.502729372" y="1007.07768213" type="line"/>
      <point x="124.502729372" y="0.0" type="line"/>
      <point x="851.173682553" y="0.0" type="line"/>
    </contour>
  </outline>
</glyph>
<glyph name="uni0448" format="1">
  <advance width="1330.63484149"/>
  <unicode hex="0448"/>
  <outline>
    <contour>
      <point x="146.676411925" y="0.0" type="line"/>
      <point x="1223.44037371" y="0.0" type="line"/>
      <point x="1223.44037371" y="1007.07768213" type="line"/>
      <point x="1028.7669536" y="1007.07768213" type="line"/>
      <point x="1028.7669536" y="155.486878018" type="line"/>
      <point x="782.735775772" y="155.486878018" type="line"/>
      <point x="782.735775772" y="1007.07768213" type="line"/>
      <point x="587.743701449" y="1007.07768213" type="line"/>
      <point x="587.743701449" y="155.486878018" type="line"/>
      <point x="342.075215201" y="155.486878018" type="line"/>
      <point x="342.075215201" y="1007.07768213" type="line"/>
      <point x="146.676411925" y="1007.07768213" type="line"/>
    </contour>
  </outline>
</glyph>
<glyph name="uni044C" format="1">
  <advance width="935.285009448"/>
  <unicode hex="044C"/>
  <outline>
    <contour>
      <point x="122.458692001" y="0.0" type="line"/>
      <point x="541.253831619" y="0.0" type="line" smooth="yes"/>
      <point x="769.329046819" y="0.0"/>
      <point x="882.748635314" y="149.70213101"/>
      <point x="882.748635314" y="328.813457905" type="curve" smooth="yes"/>
      <point x="882.748635314" y="514.958429561"/>
      <point x="753.437906781" y="643.077682133"/>
      <point x="532.440373714" y="643.077682133" type="curve" smooth="yes"/>
      <point x="328.3082616" y="643.077682133" type="line"/>
      <point x="328.3082616" y="1007.44037371" type="line"/>
      <point x="122.458692001" y="1007.44037371" type="line"/>
    </contour>
    <contour>
      <point x="328.670953181" y="153.266691161" type="line"/>
      <point x="328.670953181" y="491.668486248" type="line"/>
      <point x="530.901532647" y="491.668486248" type="line" smooth="yes"/>
      <point x="639.196934705" y="491.668486248"/>
      <point x="685.746168381" y="412.329046819"/>
      <point x="685.746168381" y="332.176149486" type="curve" smooth="yes"/>
      <point x="685.746168381" y="249.528448457"/>
      <point x="640.976747848" y="153.266691161"/>
      <point x="536.538841067" y="153.266691161" type="curve" smooth="yes"/>
    </contour>
  </outline>
</glyph>
<glyph name="uni044F" format="1">
  <advance width="1027.05196305"/>
  <unicode hex="044F"/>
  <outline>
    <contour>
      <point x="87.5363741339" y="0.0" type="line"/>
      <point x="317.924784799" y="0.0" type="line"/>
      <point x="502.331513752" y="395.823850514" type="line"/>
      <point x="709.634841486" y="395.823850514" type="line"/>
      <point x="709.634841486" y="0.0" type="line"/>
      <point x="914.847102666" y="0.0" type="line"/>
      <point x="914.847102666" y="1007.07768213" type="line"/>
      <point x="446.922317867" y="1007.07768213" type="line" smooth="yes"/>
      <point x="218.572485828" y="1007.07768213"/>
      <point x="95.7461683813" y="872.189009028"/>
      <point x="95.7461683813" y="698.626915809" type="curve" smooth="yes"/>
      <point x="95.7461683813" y="573.823850514"/>
      <point x="172.230579467" y="467.98960739"/>
      <point x="301.207327315" y="423.626915809" type="curve"/>
    </contour>
    <contour>
      <point x="451.077682133" y="555.815924837" type="line"/>
      <point x="342.463625866" y="555.815924837"/>
      <point x="300.870354818" y="658.476485408"/>
      <point x="300.870354818" y="698.626915809" type="curve"/>
      <point x="300.870354818" y="770.373084191"/>
      <point x="342.826317447" y="843.272149906"/>
      <point x="451.077682133" y="843.272149906" type="curve" smooth="yes"/>
      <point x="709.634841486" y="843.272149906" type="line"/>
      <point x="709.634841486" y="555.815924837" type="line"/>
    </contour>
  </outline>
</glyph>
<glyph name="uni0452" format="1">
  <advance width="1060.9925992"/>
  <unicode hex="0452"/>
  <outline>
    <contour>
      <point x="603.686804535" y="-255.186542095" type="line"/>
      <point x="671.137570859" y="-255.186542095" type="line" smooth="yes"/>
      <point x="941.137570859" y="-255.186542095"/>
      <point x="962.862954021" y="-127.329046819"/>
      <point x="962.862954021" y="149.264224228" type="curve" smooth="yes"/>
      <point x="962.862954021" y="409.220186857" type="line" smooth="yes"/>
      <point x="962.862954021" y="671.220186857"/>
      <point x="858.225645602" y="817.626915809"/>
      <point x="624.225645602" y="817.626915809" type="curve" smooth="yes"/>
      <point x="493.17121562" y="817.626915809"/>
      <point x="390.984673525" y="759.484411085"/>
      <point x="313.47947722" y="664.474018476" type="curve"/>
      <point x="313.47947722" y="996.549233676" type="line"/>
      <point x="684.401795087" y="996.549233676" type="line"/>
      <point x="684.401795087" y="1111.67095318" type="line"/>
      <point x="313.47947722" y="1111.67095318" type="line"/>
      <point x="313.47947722" y="1377.85749528" type="line"/>
      <point x="153.039103506" y="1377.85749528" type="line"/>
      <point x="153.039103506" y="1111.67095318" type="line"/>
      <point x="68.7644866681" y="1111.67095318" type="line"/>
      <point x="68.7644866681" y="997.230579467" type="line"/>
      <point x="153.039103506" y="997.230579467" type="line"/>
      <point x="153.039103506" y="0.0" type="line"/>
      <point x="313.47947722" y="0.0" type="line"/>
      <point x="313.47947722" y="451.406728952" type="line"/>
      <point x="338.116785639" y="543.593271048"/>
      <point x="460.215252992" y="668.142504724"/>
      <point x="610.225645602" y="668.142504724" type="curve" smooth="yes"/>
      <point x="774.19200084" y="668.142504724"/>
      <point x="803.147963468" y="561.362691581"/>
      <point x="803.147963468" y="337.450766324" type="curve" smooth="yes"/>
      <point x="803.147963468" y="99.220186857" type="line" smooth="yes"/>
      <point x="803.147963468" y="-93.3290468192"/>
      <point x="787.598729792" y="-117.471551543"/>
      <point x="634.862954021" y="-117.471551543" type="curve" smooth="yes"/>
      <point x="592.324112954" y="-117.471551543" type="line"/>
    </contour>
  </outline>
</glyph>
<glyph name="uni045B" format="1">
  <advance width="1060.03663657"/>
  <unicode hex="045B"/>
  <outline>
    <contour>
      <point x="149.533907201" y="0.0" type="line"/>
      <point x="321.764486668" y="0.0" type="line"/>
      <point x="321.764486668" y="478.810990972" type="line"/>
      <point x="348.632374554" y="521.924784799"/>
      <point x="442.051963048" y="587.522989712"/>
      <point x="564.658093638" y="587.522989712" type="curve" smooth="yes"/>
      <point x="717.790205753" y="587.522989712"/>
      <point x="745.152897334" y="503.730317027"/>
      <point x="745.152897334" y="283.598204913" type="curve" smooth="yes"/>
      <point x="745.152897334" y="0.0" type="line"/>
      <point x="916.658093638" y="0.0" type="line"/>
      <point x="916.658093638" y="336.478952341" type="line" smooth="yes"/>
      <point x="916.658093638" y="593.10586815"/>
      <point x="815.844635734" y="731.908933445"/>
      <point x="583.119252572" y="731.908933445" type="curve" smooth="yes"/>
      <point x="458.119252572" y="731.908933445"/>
      <point x="372.502729372" y="697.665494436"/>
      <point x="321.764486668" y="654.59573798" type="curve"/>
      <point x="321.764486668" y="973.331513752" type="line"/>
      <point x="670.381009868" y="973.331513752" type="line"/>
      <point x="670.381009868" y="1088.13457905" type="line"/>
      <point x="309.974280915" y="1088.13457905" type="line"/>
      <point x="309.974280915" y="1363.51805585" type="line"/>
      <point x="149.533907201" y="1363.51805585" type="line"/>
      <point x="149.533907201" y="1088.13457905" type="line"/>
      <point x="41.3602246483" y="1088.13457905" type="line"/>
      <point x="41.3602246483" y="973.694205333" type="line"/>
      <point x="149.533907201" y="973.694205333" type="line"/>
    </contour>
  </outline>
</glyph>
<glyph name="uni045F" format="1">
  <advance width="1021.46115893"/>
  <unicode hex="045F"/>
  <outline>
    <contour>
      <point x="452.041570439" y="-276.91439219" type="line"/>
      <point x="612.155364266" y="-276.91439219" type="line"/>
      <point x="620.650167961" y="0.0" type="line"/>
      <point x="916.870354818" y="0.0" type="line"/>
      <point x="916.870354818" y="1007.07768213" type="line"/>
      <point x="722.129645182" y="1007.07768213" type="line"/>
      <point x="722.129645182" y="154.442840647" type="line"/>
      <point x="306.365158514" y="154.442840647" type="line"/>
      <point x="306.365158514" y="1007.07768213" type="line"/>
      <point x="111.943103086" y="1007.07768213" type="line"/>
      <point x="111.943103086" y="0.0" type="line"/>
      <point x="445.590804115" y="0.0" type="line"/>
    </contour>
  </outline>
</glyph>
<glyph name="quotesinglbase" format="1">
  <advance width="456.134579047"/>
  <unicode hex="201A"/>
  <outline>
    <contour>
      <point x="93.7694205333" y="-231.593271048" type="line"/>
      <point x="229.036111694" y="-231.593271048" type="line"/>
      <point x="362.696672265" y="211.067289523" type="line"/>
      <point x="184.847102666" y="211.067289523" type="line"/>
    </contour>
  </outline>
</glyph>
<glyph name="quotedblleft" format="1">
  <advance width="683.733308839"/>
  <unicode hex="201C"/>
  <outline>
    <contour>
      <point x="183.704597942" y="874.375551123" type="line"/>
      <point x="332.28747638" y="1029.39386941" type="line"/>
      <point x="274.624448877" y="1485.47454336" type="line"/>
      <point x="96.2592903632" y="1333.13757086" type="line"/>
    </contour>
    <contour>
      <point x="455.033644762" y="874.375551123" type="line"/>
      <point x="611.209794247" y="1029.39386941" type="line"/>
      <point x="546.316187277" y="1486.15588915" type="line"/>
      <point x="376.269682973" y="1333.13757086" type="line"/>
    </contour>
  </outline>
</glyph>
<glyph name="quotedblright" format="1">
  <advance width="756.237980265"/>
  <unicode hex="201D"/>
  <outline>
    <contour>
      <point x="126.100934285" y="958.347365106" type="line"/>
      <point x="260.730317027" y="958.347365106" type="line"/>
      <point x="390.445307579" y="1406.67887886" type="line"/>
      <point x="218.178616418" y="1406.67887886" type="line"/>
    </contour>
    <contour>
      <point x="390.59573798" y="954.48986983" type="line"/>
      <point x="520.323588075" y="954.48986983" type="line"/>
      <point x="655.577419693" y="1406.67887886" type="line"/>
      <point x="477.178616418" y="1406.67887886" type="line"/>
    </contour>
  </outline>
</glyph>
<glyph name="dagger" format="1">
  <advance width="861.735775772"/>
  <unicode hex="2020"/>
  <outline>
    <contour>
      <point x="353.481944153" y="106.142504724" type="line"/>
      <point x="500.155364266" y="106.142504724" type="line"/>
      <point x="500.155364266" y="914.699664077" type="line"/>
      <point x="790.134579047" y="914.699664077" type="line"/>
      <point x="790.134579047" y="1048.8134579" type="line"/>
      <point x="503.694205333" y="1048.8134579" type="line"/>
      <point x="503.694205333" y="1392.18407516" type="line"/>
      <point x="353.481944153" y="1392.18407516" type="line"/>
      <point x="353.481944153" y="1048.8134579" type="line"/>
      <point x="77.5804115054" y="1048.8134579" type="line"/>
      <point x="77.5804115054" y="914.699664077" type="line"/>
      <point x="353.481944153" y="914.699664077" type="line"/>
    </contour>
  </outline>
</glyph>
<glyph name="guilsinglright" format="1">
  <advance width="541.590804115"/>
  <unicode hex="203A"/>
  <outline>
    <contour>
      <point x="81.0183182868" y="160.735775772" type="line"/>
      <point x="241.274616838" y="160.735775772" type="line"/>
      <point x="475.155364266" y="528.823850514" type="line"/>
      <point x="246.637308419" y="895.769420533" type="line"/>
      <point x="86.3810098677" y="895.769420533" type="line"/>
      <point x="303.40426202" y="528.823850514" type="line"/>
    </contour>
  </outline>
</glyph>
<glyph name="fraction" format="1">
  <advance width="1056.58041151"/>
  <unicode hex="2044"/>
  <outline>
    <contour>
      <point x="60.0519630485" y="0.0" type="line"/>
      <point x="215.484411085" y="0.0" type="line"/>
      <point x="1014.97921478" y="1379.18407516" type="line"/>
      <point x="861.272149906" y="1379.18407516" type="line"/>
    </contour>
  </outline>
</glyph>
<glyph name="uni2116" format="1">
  <advance width="2465.40426202"/>
  <unicode hex="2116"/>
  <outline>
    <contour>
      <point x="752.968979635" y="0.0" type="line"/>
      <point x="964.041203023" y="0.0" type="line"/>
      <point x="964.041203023" y="608.158880957" type="line" smooth="yes"/>
      <point x="964.041203023" y="675.363741339"/>
      <point x="948.468717195" y="1041.23357128"/>
      <point x="948.468717195" y="1041.23357128" type="curve"/>
      <point x="1091.54445727" y="840.481419274"/>
      <point x="1499.50482889" y="199.158880957"/>
      <point x="1644.17384002" y="0.0" type="curve"/>
      <point x="1879.15798866" y="0.0" type="line"/>
      <point x="1879.15798866" y="1344.23057947" type="line"/>
      <point x="1668.0417279" y="1344.23057947" type="line"/>
      <point x="1668.0417279" y="670.989082511" type="line" smooth="yes"/>
      <point x="1668.0417279" y="642.913867311"/>
      <point x="1678.71268108" y="333.219661978"/>
      <point x="1679.07537266" y="296.688746588" type="curve"/>
      <point x="1535.04366996" y="497.122244384"/>
      <point x="1127.03926097" y="1145.39035272"/>
      <point x="981.732941423" y="1344.23057947" type="curve"/>
      <point x="752.968979635" y="1344.23057947" type="line"/>
    </contour>
    <contour>
      <point x="1167.84395339" y="143.266691161" type="curve" smooth="yes"/>
      <point x="985.615840857" y="143.266691161"/>
      <point x="905.517373504" y="287.077682133"/>
      <point x="905.517373504" y="503.670953181" type="curve" smooth="yes"/>
      <point x="905.517373504" y="723.582878438"/>
      <point x="986.615840857" y="866.305794667"/>
      <point x="1167.48126181" y="866.305794667" type="curve" smooth="yes"/>
      <point x="1349.07206592" y="866.305794667"/>
      <point x="1429.44515012" y="724.264224228"/>
      <point x="1429.44515012" y="504.033644762" type="curve" smooth="yes"/>
      <point x="1429.44515012" y="287.077682133"/>
      <point x="1349.70937434" y="143.266691161"/>
    </contour>
    <contour>
      <point x="1165.71184128" y="-19.5932710477" type="curve" smooth="yes"/>
      <point x="1460.9656729" y="-19.5932710477"/>
      <point x="1638.78952341" y="197.549233676"/>
      <point x="1638.78952341" y="504.98960739" type="curve" smooth="yes"/>
      <point x="1638.78952341" y="813.847102666"/>
      <point x="1465.6574113" y="1029.52844846"/>
      <point x="1169.61337392" y="1029.52844846" type="curve" smooth="yes"/>
      <point x="868.942420743" y="1029.52844846"/>
      <point x="696.535691791" y="817.704597942"/>
      <point x="696.535691791" y="504.98960739" type="curve" smooth="yes"/>
      <point x="696.535691791" y="200.0"/>
      <point x="876.128962839" y="-19.5932710477"/>
    </contour>
  </outline>
</glyph>
<glyph name="summation" format="1">
  <advance width="1152.19446777"/>
  <unicode hex="2211"/>
  <outline>
    <contour>
      <point x="67.0752152005" y="-311.70213101" type="line"/>
      <point x="1099.46115893" y="-311.70213101" type="line"/>
      <point x="1099.46115893" y="-142.919850934" type="line"/>
      <point x="302.310728532" y="-142.919850934" type="line"/>
      <point x="834.054429981" y="540.515588915" type="line"/>
      <point x="325.673420113" y="1204.03910351" type="line"/>
      <point x="1062.05442998" y="1204.03910351" type="line"/>
      <point x="1062.05442998" y="1366.22811253" type="line"/>
      <point x="86.3498320386" y="1366.22811253" type="line"/>
      <point x="86.3498320386" y="1256.71005669" type="line"/>
      <point x="619.733308839" y="533.196934705" type="line"/>
      <point x="67.0752152005" y="-206.228112534" type="line"/>
    </contour>
  </outline>
</glyph>
<glyph name="minus" format="1">
  <advance width="1175.31319547"/>
  <unicode hex="2212"/>
  <outline>
    <contour>
      <point x="125.233046399" y="457.184075163" type="line"/>
      <point x="1055.01532647" y="457.184075163" type="line"/>
      <point x="1055.01532647" y="615.373084191" type="line"/>
      <point x="125.233046399" y="615.373084191" type="line"/>
    </contour>
  </outline>
</glyph>
<glyph name="notequal" format="1">
  <advance width="1132.65016796"/>
  <unicode hex="2260"/>
  <outline>
    <contour>
      <point x="383.673420113" y="41.1865420953" type="line"/>
      <point x="511.771887466" y="304.888673105" type="line"/>
      <point x="1024.17861642" y="304.888673105" type="line"/>
      <point x="1015.36515851" y="444.803065295" type="line"/>
      <point x="577.113793827" y="444.803065295" type="line"/>
      <point x="700.331513752" y="683.821383582" type="line"/>
      <point x="1024.17861642" y="683.821383582" type="line"/>
      <point x="1013.72785009" y="831.955962629" type="line"/>
      <point x="765.310728532" y="831.955962629" type="line"/>
      <point x="871.266691161" y="1064.66848625" type="line"/>
      <point x="739.362691581" y="1082.52598152" type="line"/>
      <point x="614.901532647" y="831.955962629" type="line"/>
      <point x="117.132112114" y="831.955962629" type="line"/>
      <point x="126.901532647" y="684.184075163" type="line"/>
      <point x="550.285009448" y="684.184075163" type="line"/>
      <point x="430.341906362" y="445.484411085" type="line"/>
      <point x="118.494803695" y="445.484411085" type="line"/>
      <point x="126.901532647" y="304.888673105" type="line"/>
      <point x="361.769420533" y="304.888673105" type="line"/>
      <point x="253.769420533" y="62.3626915809" type="line"/>
    </contour>
  </outline>
</glyph>
<glyph name="lozenge" format="1">
  <advance width="1083.05442998"/>
  <unicode hex="25CA"/>
  <outline>
    <contour>
      <point x="485.867887886" y="-42.5932710477" type="line"/>
      <point x="595.484411085" y="-42.5932710477" type="line"/>
      <point x="998.28747638" y="683.888673105" type="line"/>
      <point x="603.847102666" y="1410.77734621" type="line"/>
      <point x="492.230579467" y="1410.77734621" type="line"/>
      <point x="92.1528973336" y="682.251364686" type="line"/>
    </contour>
    <contour>
      <point x="539.538841067" y="130.080149066" type="curve"/>
      <point x="440.023252152" y="312.694205333"/>
      <point x="344.331513752" y="500.769420533"/>
      <point x="246.497270628" y="684.251364686" type="curve"/>
      <point x="346.694205333" y="867.414654629"/>
      <point x="448.979214781" y="1050.89659878"/>
      <point x="549.494803695" y="1234.14796347" type="curve"/>
      <point x="645.735775772" y="1049.30332773"/>
      <point x="746.3834768" y="865.77734621"/>
      <point x="843.580411505" y="682.932710477" type="curve"/>
      <point x="743.3834768" y="499.450766324"/>
      <point x="640.098467353" y="315.331513752"/>
    </contour>
  </outline>
</glyph>
